<svg xmlns="http://www.w3.org/2000/svg" width="285" height="293" viewBox="0 0 285 293">
  <rect width="100%" height="100%" fill="white"/>
  <g transform="translate(50,50)">
    
<path xmlns="http://www.w3.org/2000/svg" d="M0 0 C6.84851037 5.70709197 9.86209202 12.01915861 12.8203125 20.33984375 C13.21114014 21.41975586 13.60196777 22.49966797 14.00463867 23.61230469 C16.71949897 31.26709416 18.91631622 38.74040505 20.1328125 46.77734375 C20.37789551 48.2780542 20.37789551 48.2780542 20.62792969 49.80908203 C24.22398919 71.92202386 27.22213188 92.38625431 17.46484375 113.36328125 C16.0147956 117.07982696 15.89080118 119.82449216 16.1328125 123.77734375 C17.23848985 121.78960918 18.31569204 119.7860411 19.3828125 117.77734375 C19.98609375 116.66359375 20.589375 115.54984375 21.2109375 114.40234375 C26.63418733 102.53915955 27.97600554 89.03699321 29.65499878 76.24578857 C33.11910845 50.16833295 37.41446006 19.43054262 58.84375 1.44140625 C64.02740245 -2.32691447 69.35822126 -3.89436347 75.7734375 -3.62890625 C83.15328345 -2.3582043 89.07189198 1.72046674 93.68359375 7.50390625 C95.7334646 10.71960661 96.93811111 13.97691527 98.1015625 17.59765625 C99.09200336 20.65151556 100.21942273 23.61000814 101.39331055 26.59594727 C107.95583898 43.42278957 110.20859306 60.79907509 111.1328125 78.77734375 C111.18695313 79.61394531 111.24109375 80.45054688 111.296875 81.3125 C111.70287072 92.36665625 109.28042011 113.12226853 101.4765625 121.5703125 C101.033125 121.96863281 100.5896875 122.36695313 100.1328125 122.77734375 C100.1328125 123.43734375 100.1328125 124.09734375 100.1328125 124.77734375 C100.7928125 124.77734375 101.4528125 124.77734375 102.1328125 124.77734375 C106.59914864 116.29632344 110.40985176 108.01173234 113.1328125 98.77734375 C113.4628125 98.77734375 113.7928125 98.77734375 114.1328125 98.77734375 C114.1328125 117.25734375 114.1328125 135.73734375 114.1328125 154.77734375 C104.60293489 156.13875484 104.60293489 156.13875484 99.1328125 152.77734375 C93.02455601 147.50614463 88.15246723 140.64234536 86.1328125 132.77734375 C86.06018793 130.13015048 86.11409792 127.49585428 86.16113281 124.84814453 C86.11007868 119.31229221 85.26404857 113.87886256 84.5078125 108.40234375 C84.33540039 107.09958496 84.16298828 105.79682617 83.98535156 104.45458984 C83.00658297 97.06612019 81.9818816 89.68424953 80.9458313 82.30361938 C80.3891373 78.32390268 79.84115153 74.34300539 79.29376221 70.36199951 C78.89274548 67.473881 78.4785609 64.58785537 78.06396484 61.70166016 C74.17955423 33.96557335 74.17955423 33.96557335 78.1328125 21.77734375 C71.1910928 27.75150615 69.0379773 39.60536764 66.7578125 48.15234375 C66.46527588 49.2410376 66.17273926 50.32973145 65.87133789 51.45141602 C62.87255612 63.06458877 60.79872089 74.82973323 58.69238281 86.63012695 C49.26015937 139.45249496 49.26015937 139.45249496 35.1328125 150.77734375 C30.27744546 153.90353581 24.69295169 153.24193759 19.1328125 152.77734375 C12.99220623 150.76983785 7.20658954 146.03351225 3.72705078 140.57006836 C0.68075153 134.55912198 -0.96688252 129.05418662 -1.9296875 122.40234375 C-2.08759766 121.39486084 -2.24550781 120.38737793 -2.40820312 119.34936523 C-4.0643262 108.33336477 -5.19327422 97.24880155 -6.35864258 86.17236328 C-7.4385728 76.01184401 -8.7979268 65.94536732 -10.6484375 55.89086914 C-12.45092417 45.70009646 -12.68237745 36.40123382 -9.3671875 26.52734375 C-9.12871094 25.77066406 -8.89023437 25.01398437 -8.64453125 24.234375 C-8.06734444 22.41046469 -7.46956753 20.59308925 -6.8671875 18.77734375 C-10.5973071 21.97258017 -12.23708994 25.39404468 -13.85546875 29.92578125 C-14.23908318 30.97782242 -14.23908318 30.97782242 -14.63044739 32.05111694 C-17.44002815 40.01410222 -19.30253562 48.15373661 -21.0546875 56.40234375 C-21.22494446 57.1875943 -21.39520142 57.97284485 -21.57061768 58.78189087 C-25.20561091 75.56635625 -27.56064931 92.14799522 -28.8046875 109.27734375 C-29.4096769 117.53464878 -30.28285913 125.67654307 -31.6796875 133.83984375 C-31.82075928 134.72542969 -31.96183105 135.61101562 -32.10717773 136.5234375 C-33.44094174 143.77442846 -36.12834333 149.3428156 -41.6796875 154.27734375 C-45.57599746 156.11090138 -48.69527194 156.79108024 -52.8671875 155.77734375 C-57.5751178 153.46969992 -60.87663384 150.6472917 -62.8046875 145.71484375 C-66.61596832 133.37235157 -64.6936396 120.24795096 -63.6171875 107.58984375 C-63.5502771 106.79910461 -63.4833667 106.00836548 -63.41442871 105.19366455 C-60.53148628 71.634492 -56.5450595 26.66323668 -30.3046875 2.15234375 C-21.31790993 -4.65955157 -9.82254897 -5.72019028 0 0 Z " fill="#1066B7" transform="translate(70.8671875,27.22265625)"/>
<path xmlns="http://www.w3.org/2000/svg" d="M0 0 C2.38340925 1.90881353 3.74967881 3.54514319 4.78515625 6.4296875 C4.47265625 8.7421875 4.47265625 8.7421875 3.78515625 10.4296875 C2.71265625 10.5534375 1.64015625 10.6771875 0.53515625 10.8046875 C-3.67622869 11.40512783 -3.67622869 11.40512783 -7.21484375 13.4296875 C-7.95507696 15.40364273 -8.60245476 17.41240612 -9.21484375 19.4296875 C-9.98714351 20.96044653 -10.78108507 22.48037417 -11.58984375 23.9921875 C-16.96084197 34.55989463 -19.29262999 46.34899951 -21.77734375 57.8671875 C-21.92891937 58.56522491 -22.080495 59.26326233 -22.23666382 59.98245239 C-25.74899442 76.24245386 -27.95580089 92.34286567 -29.15234375 108.9296875 C-29.75688064 117.18699545 -30.63052435 125.32893924 -32.02734375 133.4921875 C-32.16841553 134.37777344 -32.3094873 135.26335937 -32.45483398 136.17578125 C-33.78859799 143.42677221 -36.47599958 148.99515935 -42.02734375 153.9296875 C-45.92365371 155.76324513 -49.04292819 156.44342399 -53.21484375 155.4296875 C-57.92277405 153.12204367 -61.22429009 150.29963545 -63.15234375 145.3671875 C-66.96362457 133.02469532 -65.04129585 119.90029471 -63.96484375 107.2421875 C-63.89793335 106.45144836 -63.83102295 105.66070923 -63.76208496 104.8460083 C-60.87914253 71.28683575 -56.89271575 26.31558043 -30.65234375 1.8046875 C-21.59865758 -5.05792393 -9.71290716 -6.24023436 0 0 Z " fill="#0F6AB4" transform="translate(71.21484375,27.5703125)"/>
<path xmlns="http://www.w3.org/2000/svg" d="M0 0 C2.23591454 2.23591454 2.7290896 3.6607777 3.75 6.625 C4.94622006 10.04789185 6.16400726 13.45295437 7.48828125 16.828125 C14.36053762 34.40936192 17.03179943 52.16619363 18 71 C18.05414063 71.83660156 18.10828125 72.67320313 18.1640625 73.53515625 C18.57005822 84.5893125 16.14760761 105.34492478 8.34375 113.79296875 C7.9003125 114.19128906 7.456875 114.58960938 7 115 C7 115.66 7 116.32 7 117 C7.66 117 8.32 117 9 117 C13.46633614 108.51897969 17.27703926 100.23438859 20 91 C20.33 91 20.66 91 21 91 C21 109.48 21 127.96 21 147 C11.47012239 148.36141109 11.47012239 148.36141109 6 145 C-0.10825649 139.72880088 -4.98034527 132.86500161 -7 125 C-7.07262457 122.35280673 -7.01871458 119.71851053 -6.97167969 117.07080078 C-7.02273382 111.53494846 -7.86876393 106.10151881 -8.625 100.625 C-8.79741211 99.32224121 -8.96982422 98.01948242 -9.14746094 96.67724609 C-10.12622953 89.28877644 -11.1509309 81.90690578 -12.1869812 74.52627563 C-12.7436752 70.54655893 -13.29166097 66.56566164 -13.83905029 62.58465576 C-14.24006702 59.69653725 -14.6542516 56.81051162 -15.06884766 53.92431641 C-18.95325827 26.1882296 -18.95325827 26.1882296 -15 14 C-15.66 13.67 -16.32 13.34 -17 13 C-13.62338001 7.51299252 -10.37990571 3.8152033 -4 2 C-3.01 2.33 -2.02 2.66 -1 3 C-0.67 2.01 -0.34 1.02 0 0 Z " fill="#E2CA41" transform="translate(164,35)"/>
<path xmlns="http://www.w3.org/2000/svg" d="M0 0 C3.13487229 2.82982431 4.7698562 5.20539848 6.25390625 9.1484375 C6.63200439 10.14584961 7.01010254 11.14326172 7.3996582 12.17089844 C7.783396 13.22825195 8.16713379 14.28560547 8.5625 15.375 C8.96235107 16.46844727 9.36220215 17.56189453 9.77416992 18.68847656 C12.53813795 26.39713702 14.7733648 33.89607723 16 42 C16.16338867 43.00047363 16.32677734 44.00094727 16.49511719 45.03173828 C20.12455418 67.34992542 22.87328673 87.55080098 13.34375 108.77734375 C11.82952345 112.40884637 11.76147476 115.10408776 12 119 C12.99 118.505 12.99 118.505 14 118 C12.74797133 121.75608601 11.36936427 122.14684965 8 124 C7.67 124.33 7.34 124.66 7 125 C5.1875 125.1328125 5.1875 125.1328125 3 125.125 C2.278125 125.12757813 1.55625 125.13015625 0.8125 125.1328125 C-1 125 -1 125 -2 124 C-2.66 125.32 -3.32 126.64 -4 128 C-6.73610894 113.29891309 -8.68560364 98.5912003 -10.24487305 83.72839355 C-11.39672413 72.7858083 -12.7882627 61.94215077 -14.78125 51.11352539 C-16.58373667 40.92275271 -16.81518995 31.62389007 -13.5 21.75 C-13.26152344 20.99332031 -13.02304687 20.23664062 -12.77734375 19.45703125 C-12.20015694 17.63312094 -11.60238003 15.8157455 -11 14 C-11.66 13.67 -12.32 13.34 -13 13 C-11.59908008 9.61444353 -10.20330189 7.81809026 -7 6 C-3.25 5.3125 -3.25 5.3125 0 5 C0 3.35 0 1.7 0 0 Z " fill="#D46E26" transform="translate(75,32)"/>
<path xmlns="http://www.w3.org/2000/svg" d="M0 0 C0.99 0.33 1.98 0.66 3 1 C3 1.66 3 2.32 3 3 C3.66 3 4.32 3 5 3 C5 3.66 5 4.32 5 5 C5.66 5 6.32 5 7 5 C7 5.66 7 6.32 7 7 C7.99 7 8.98 7 10 7 C11.35439668 9.70879335 11.06501451 12.00933268 11 15 C11.99 15 12.98 15 14 15 C19.72796203 32.49074118 18.38177077 50.84239479 18 69 C17.34 69 16.68 69 16 69 C12.7981671 79.44384571 12.7981671 79.44384571 10 90 C9.01 90 8.02 90 7 90 C6.505 90.99 6.505 90.99 6 92 C5.01 91.67 4.02 91.34 3 91 C3 91.66 3 92.32 3 93 C2.34 93 1.68 93 1 93 C0.93941406 92.36191406 0.87882813 91.72382813 0.81640625 91.06640625 C0.73261719 90.24011719 0.64882812 89.41382813 0.5625 88.5625 C0.48128906 87.73878906 0.40007812 86.91507812 0.31640625 86.06640625 C0.21069185 84.01337975 0.21069185 84.01337975 -1 83 C-1.04080783 81.00041636 -1.04254356 78.99954746 -1 77 C-1.99 76.67 -2.98 76.34 -4 76 C-5.79638822 66.97921242 -6.37233546 58.18355593 -6.5625 49 C-6.75561002 40.86472665 -7.03617376 32.79013957 -7.76635742 24.68408203 C-8.09321243 20.92917712 -8.27921277 17.20635912 -8.375 13.4375 C-8.41238281 12.75365234 -8.44976562 12.06980469 -8.48828125 11.36523438 C-8.5234375 9.37109375 -8.5234375 9.37109375 -8 6 C-5.38389986 3.86949705 -3.19047942 3.06349314 0 2 C0 1.34 0 0.68 0 0 Z " fill="#F2D10C" transform="translate(161,53)"/>
<path xmlns="http://www.w3.org/2000/svg" d="M0 0 C2.88501148 1.44250574 3.26887815 3.39702388 4.5625 6.3125 C4.99691406 7.27800781 5.43132812 8.24351563 5.87890625 9.23828125 C8.09316252 14.69291254 8.31131318 19.95219976 8.60546875 25.77539062 C8.51170272 29.17877167 8.51170272 29.17877167 10 32 C10.22753357 33.7037908 10.39473238 35.41573499 10.53515625 37.12890625 C10.62216797 38.16337891 10.70917969 39.19785156 10.79882812 40.26367188 C10.88583984 41.35228516 10.97285156 42.44089844 11.0625 43.5625 C11.15337891 44.65498047 11.24425781 45.74746094 11.33789062 46.87304688 C11.56262811 49.58172492 11.78314089 52.29068166 12 55 C11.34 55 10.68 55 10 55 C9.7834375 56.11375 9.7834375 56.11375 9.5625 57.25 C9.2364282 58.8441288 8.8780397 60.43363663 8.4375 62 C7.91859143 64.37215345 7.93275683 66.57924572 8 69 C6.515 69.495 6.515 69.495 5 70 C4.87625 71.258125 4.7525 72.51625 4.625 73.8125 C4.30131941 77.10325263 3.93395001 78.09907498 2 81 C0.68 80.67 -0.64 80.34 -2 80 C-2.12375 79.360625 -2.2475 78.72125 -2.375 78.0625 C-2.58125 77.381875 -2.7875 76.70125 -3 76 C-3.66 75.67 -4.32 75.34 -5 75 C-5 72.69 -5 70.38 -5 68 C-5.66 68 -6.32 68 -7 68 C-7.33 69.32 -7.66 70.64 -8 72 C-8.66 72 -9.32 72 -10 72 C-10.19871541 70.48059141 -10.38332696 68.95933682 -10.5625 67.4375 C-10.66691406 66.59058594 -10.77132812 65.74367188 -10.87890625 64.87109375 C-11.02289212 61.45723522 -10.50910354 58.3814107 -10 55 C-9.64515318 51.37899011 -9.40676696 47.75645503 -9.1875 44.125 C-9.07245117 42.71154297 -9.07245117 42.71154297 -8.95507812 41.26953125 C-8.5656195 34.48450514 -9.78837133 29.94670821 -13 24 C-14.33885261 20.92063899 -15 19.36246468 -15 16 C-14.525625 15.4225 -14.05125 14.845 -13.5625 14.25 C-11.71450557 11.95132972 -11.71450557 11.95132972 -11.5 8.375 C-11.2525 6.704375 -11.2525 6.704375 -11 5 C-10.01 4.34 -9.02 3.68 -8 3 C-7.67 4.65 -7.34 6.3 -7 8 C-5.35 8.33 -3.7 8.66 -2 9 C-2.226875 8.443125 -2.45375 7.88625 -2.6875 7.3125 C-3.12449065 4.07876916 -1.81198627 2.60926022 0 0 Z " fill="#E26A11" transform="translate(81,60)"/>
<path xmlns="http://www.w3.org/2000/svg" d="M0 0 C2.16469494 1.58902881 3.36925159 2.80692456 5 5 C4.8125 7.3125 4.8125 7.3125 4 9 C2.700625 9.12375 2.700625 9.12375 1.375 9.25 C-3.82496064 10.40554681 -7.02060627 12.63172935 -10.125 16.96875 C-16.88718322 29.70419507 -20.57298437 43.0517261 -24 57 C-24.33 57 -24.66 57 -25 57 C-25.19347551 51.15274012 -25.2381007 45.7933065 -23.55859375 40.1640625 C-22.85625283 37.44310538 -22.5504198 34.72334153 -22.1875 31.9375 C-21.29324579 26.33066806 -19.81906122 23.19165256 -16 19 C-15.01 18.67 -14.02 18.34 -13 18 C-12.9071875 16.63875 -12.9071875 16.63875 -12.8125 15.25 C-11.80187958 11.20751833 -10.17382073 10.52278058 -7 8 C-6.58129447 5.33071879 -6.58129447 5.33071879 -7 3 C-8.32 2.67 -9.64 2.34 -11 2 C-11 0.35 -11 -1.3 -11 -3 C-13.12898327 -2.60418903 -15.2531956 -2.18264558 -17.375 -1.75 C-18.55835938 -1.51796875 -19.74171875 -1.2859375 -20.9609375 -1.046875 C-24.10186813 -0.30713529 -24.10186813 -0.30713529 -25.4140625 2.109375 C-25.60742188 2.73328125 -25.80078125 3.3571875 -26 4 C-27.32 4 -28.64 4 -30 4 C-30 4.66 -30 5.32 -30 6 C-30.78375 6.226875 -31.5675 6.45375 -32.375 6.6875 C-35.18515193 7.7689321 -35.18515193 7.7689321 -36.25 10.4375 C-36.4975 11.283125 -36.745 12.12875 -37 13 C-37.495 14.485 -37.495 14.485 -38 16 C-38.66 16 -39.32 16 -40 16 C-42.057622 21.86667226 -43.35595816 26.8513969 -42.8125 33.08984375 C-43.06294504 35.64125258 -44.20593592 36.23733205 -46 38 C-46.65654105 40.33892748 -47.00236331 42.64021378 -47.375 45.0390625 C-47.58125 45.68617187 -47.7875 46.33328125 -48 47 C-48.99 47.33 -49.98 47.66 -51 48 C-52.14036297 52.90763351 -52.53776963 57.86884806 -53 62.875 C-53.08830078 63.80449463 -53.17660156 64.73398926 -53.26757812 65.69165039 C-53.89262664 72.41381567 -54.3493219 79.12634885 -54.65625 85.87109375 C-55.01730573 89.15752151 -55.93251865 91.88095293 -57 95 C-57.22663675 96.76416106 -57.39478256 98.53695564 -57.5 100.3125 C-58.57587651 113.90935316 -58.57587651 113.90935316 -63 118 C-63.66 118.99 -64.32 119.98 -65 121 C-67 123.1875 -67 123.1875 -69 125 C-69.66 125 -70.32 125 -71 125 C-71.103125 125.721875 -71.20625 126.44375 -71.3125 127.1875 C-72.07926169 130.32425235 -73.09854016 132.39429577 -75 135 C-77.1875 136.3125 -77.1875 136.3125 -79 137 C-78.01 139.31 -77.02 141.62 -76 144 C-79.03576518 143.67418534 -80.59896809 143.39755224 -82.80078125 141.21484375 C-86.38271513 135.81880382 -87.7070052 132.48088099 -87 126 C-86.34 126.33 -85.68 126.66 -85 127 C-79.71910055 127.60483351 -79.71910055 127.60483351 -75.1875 125.5625 C-74.795625 125.046875 -74.40375 124.53125 -74 124 C-73.01 123.67 -72.02 123.34 -71 123 C-69.88746461 121.05249134 -69.88746461 121.05249134 -69.0625 118.625 C-68.61583984 117.43777344 -68.61583984 117.43777344 -68.16015625 116.2265625 C-67.77730469 115.16179687 -67.39445312 114.09703125 -67 113 C-66.68659668 112.20827393 -66.37319336 111.41654785 -66.05029297 110.60083008 C-63.47125004 103.92267375 -62.00490486 97.51175649 -61 90.4375 C-60.83612793 89.36467773 -60.67225586 88.29185547 -60.50341797 87.18652344 C-59.65006595 81.57412419 -58.85286668 75.95467478 -58.0703125 70.33203125 C-54.56921907 45.63626423 -49.47910111 16.6128909 -29.2890625 -0.3359375 C-19.55959338 -7.40889628 -9.83129742 -6.25783453 0 0 Z " fill="#295C89" transform="translate(159,29)"/>
<path xmlns="http://www.w3.org/2000/svg" d="M0 0 C3.13487229 2.82982431 4.7698562 5.20539848 6.25390625 9.1484375 C6.63200439 10.14584961 7.01010254 11.14326172 7.3996582 12.17089844 C7.783396 13.22825195 8.16713379 14.28560547 8.5625 15.375 C8.96235107 16.46844727 9.36220215 17.56189453 9.77416992 18.68847656 C12.53813795 26.39713702 14.7733648 33.89607723 16 42 C16.16338867 43.00047363 16.32677734 44.00094727 16.49511719 45.03173828 C20.12455418 67.34992542 22.87328673 87.55080098 13.34375 108.77734375 C11.82952345 112.40884637 11.76147476 115.10408776 12 119 C12.99 118.505 12.99 118.505 14 118 C12.74797133 121.75608601 11.36936427 122.14684965 8 124 C7.67 124.33 7.34 124.66 7 125 C5.1875 125.1328125 5.1875 125.1328125 3 125.125 C2.278125 125.12757813 1.55625 125.13015625 0.8125 125.1328125 C-1 125 -1 125 -2 124 C-2.66 125.32 -3.32 126.64 -4 128 C-6.73610894 113.29891309 -8.68560364 98.5912003 -10.24487305 83.72839355 C-11.39672413 72.7858083 -12.7882627 61.94215077 -14.78125 51.11352539 C-16.58373667 40.92275271 -16.81518995 31.62389007 -13.5 21.75 C-13.26152344 20.99332031 -13.02304687 20.23664062 -12.77734375 19.45703125 C-12.20015694 17.63312094 -11.60238003 15.8157455 -11 14 C-11.66 13.67 -12.32 13.34 -13 13 C-11.59908008 9.61444353 -10.20330189 7.81809026 -7 6 C-3.25 5.3125 -3.25 5.3125 0 5 C0 3.35 0 1.7 0 0 Z M-6 13 C-7.95578117 15.39740918 -9 16.87586608 -9 20 C-9.66 20 -10.32 20 -11 20 C-10.67 21.65 -10.34 23.3 -10 25 C-10.99 25 -11.98 25 -13 25 C-13.57927434 30.92721775 -14.08459213 36.8578167 -14.25 42.8125 C-14.27578125 43.64394531 -14.3015625 44.47539063 -14.328125 45.33203125 C-13.97068305 48.23837475 -12.91467366 50.42105294 -11.70361328 53.06176758 C-10.42213134 56.5918457 -10.42413711 60.21519964 -10.3125 63.9375 C-10.27833984 64.71673828 -10.24417969 65.49597656 -10.20898438 66.29882812 C-10.1273929 68.19874393 -10.06200115 70.09934403 -10 72 C-9.67 72 -9.34 72 -9 72 C-8.92483154 72.95700806 -8.92483154 72.95700806 -8.84814453 73.93334961 C-7.5813255 89.94980803 -7.5813255 89.94980803 -6 105.9375 C-5.9292627 106.64575928 -5.85852539 107.35401855 -5.78564453 108.08374023 C-5.59635596 109.7324561 -5.30855175 111.36938969 -5 113 C-4.34 113.33 -3.68 113.66 -3 114 C-3 114.66 -3 115.32 -3 116 C0.09571409 117.83449724 2.40620629 118.6450399 6 118 C10.80421276 111.9502506 11.29638243 105.40956078 11 98 C12.485 97.505 12.485 97.505 14 97 C13.95875 95.906875 13.9175 94.81375 13.875 93.6875 C14 90 14 90 16 87 C16 85.68 16 84.36 16 83 C16.66 83 17.32 83 18 83 C17.69479039 79.18687909 17.37961671 75.37464766 17.0625 71.5625 C16.97548828 70.47388672 16.88847656 69.38527344 16.79882812 68.26367188 C16.71181641 67.22919922 16.62480469 66.19472656 16.53515625 65.12890625 C16.456604 64.17056885 16.37805176 63.21223145 16.29711914 62.22485352 C16.23332929 60.03090111 16.23332929 60.03090111 15 59 C14.86546501 56.70991547 14.76822578 54.41761208 14.6875 52.125 C14.3722687 45.67666554 13.8102483 36.8102483 9 32 C8.86798654 30.60652455 8.76941967 29.20981548 8.6875 27.8125 C8.22334634 23.1260453 7.03277371 20.58418711 4 17 C3.34 17 2.68 17 2 17 C1.67 15.68 1.34 14.36 1 13 C-2.37400578 12.58274322 -2.37400578 12.58274322 -6 13 Z " fill="#D78C4F" transform="translate(75,32)"/>
<path xmlns="http://www.w3.org/2000/svg" d="M0 0 C0.33 0 0.66 0 1 0 C1 18.48 1 36.96 1 56 C-8.54887218 57.3641246 -8.54887218 57.3641246 -14 54 C-19.93355877 48.76895729 -25.33923063 41.97996279 -26.234375 33.87890625 C-26.25 31.9375 -26.25 31.9375 -26 29 C-25.25234375 29.17917969 -24.5046875 29.35835937 -23.734375 29.54296875 C-22.74953125 29.75566406 -21.7646875 29.96835938 -20.75 30.1875 C-19.77546875 30.40792969 -18.8009375 30.62835938 -17.796875 30.85546875 C-14.38706484 31.03167402 -13.49994377 30.19574707 -11 28 C-10.34 28 -9.68 28 -9 28 C-9 27.01 -9 26.02 -9 25 C-8.01 25 -7.02 25 -6 25 C-6.66 24.34 -7.32 23.68 -8 23 C-5.36 15.41 -2.72 7.82 0 0 Z " fill="#1165B1" transform="translate(184,126)"/>
<path xmlns="http://www.w3.org/2000/svg" d="M0 0 C3.30766422 2.12506921 5.57216562 4.00906852 6.9375 7.8125 C6.625 10.125 6.625 10.125 5.9375 11.8125 C4.865 11.93625 3.7925 12.06 2.6875 12.1875 C-1.52388494 12.78794033 -1.52388494 12.78794033 -5.0625 14.8125 C-5.80273321 16.78645523 -6.45011101 18.79521862 -7.0625 20.8125 C-7.83479976 22.34325903 -8.62874132 23.86318667 -9.4375 25.375 C-15.20221368 36.7522795 -17.44858779 49.42422458 -20.0625 61.8125 C-20.3925 61.8125 -20.7225 61.8125 -21.0625 61.8125 C-20.98102902 58.60317345 -20.86824254 55.39566561 -20.75 52.1875 C-20.72744141 51.28386719 -20.70488281 50.38023438 -20.68164062 49.44921875 C-20.46585781 44.07426512 -19.69082148 40.5943938 -17.0625 35.8125 C-16.57188088 32.88220117 -16.57188088 32.88220117 -16.5 30 C-16.37109375 27.10546875 -16.37109375 27.10546875 -16.0625 24.8125 C-15.4025 24.4825 -14.7425 24.1525 -14.0625 23.8125 C-13.77375 23.049375 -13.485 22.28625 -13.1875 21.5 C-11.929215 18.49409695 -10.539092 16.9021245 -8.0625 14.8125 C-7.4025 14.8125 -6.7425 14.8125 -6.0625 14.8125 C-6.0625 11.8425 -6.0625 8.8725 -6.0625 5.8125 C-8.5375 5.3175 -8.5375 5.3175 -11.0625 4.8125 C-10.4025 4.4825 -9.7425 4.1525 -9.0625 3.8125 C-9.0625 3.1525 -9.0625 2.4925 -9.0625 1.8125 C-9.825625 2.286875 -10.58875 2.76125 -11.375 3.25 C-14.0625 4.8125 -14.0625 4.8125 -17.0625 5.8125 C-17.3925 5.4825 -17.7225 5.1525 -18.0625 4.8125 C-23.08749694 5.09719203 -23.08749694 5.09719203 -27.0625 7.8125 C-27.7050235 9.88124034 -27.7050235 9.88124034 -28.0625 11.8125 C-28.7225 11.8125 -29.3825 11.8125 -30.0625 11.8125 C-29.7325 12.8025 -29.4025 13.7925 -29.0625 14.8125 C-29.34854898 16.48792976 -29.68031233 18.15635343 -30.0625 19.8125 C-30.0625 20.4725 -30.0625 21.1325 -30.0625 21.8125 C-30.82304688 21.73128906 -31.58359375 21.65007813 -32.3671875 21.56640625 C-35.1455977 21.52825449 -35.1455977 21.52825449 -36.7578125 23.52734375 C-37.22960938 24.26082031 -37.70140625 24.99429688 -38.1875 25.75 C-40.77624906 29.71708302 -40.77624906 29.71708302 -44.0625 30.8125 C-44.0625 32.1325 -44.0625 33.4525 -44.0625 34.8125 C-44.7225 34.8125 -45.3825 34.8125 -46.0625 34.8125 C-46.3925 35.4725 -46.7225 36.1325 -47.0625 36.8125 C-45.61272976 24.68214395 -36.99839136 10.97346312 -28.0625 2.8125 C-19.60995188 -2.82253208 -9.385845 -4.84578642 0 0 Z " fill="#17619D" transform="translate(69.0625,26.1875)"/>
<path xmlns="http://www.w3.org/2000/svg" d="M0 0 C0.99 0.33 1.98 0.66 3 1 C3 1.66 3 2.32 3 3 C3.66 3 4.32 3 5 3 C5 3.66 5 4.32 5 5 C5.66 5 6.32 5 7 5 C7 5.66 7 6.32 7 7 C7.99 7 8.98 7 10 7 C11.35439668 9.70879335 11.06501451 12.00933268 11 15 C11.99 15 12.98 15 14 15 C18.59225513 33.82004556 18.59225513 33.82004556 18 43 C16.515 43.495 16.515 43.495 15 44 C13.84683274 37.65758005 13.90492937 31.43311296 14 25 C12.68 24.67 11.36 24.34 10 24 C9.87625 22.80375 9.7525 21.6075 9.625 20.375 C9.17674946 16.72403187 8.29553163 13.45475101 7 10 C3.37 10 -0.26 10 -4 10 C-5.5604363 16.24174519 -6.20080581 21.43377639 -5.1875 27.8125 C-4.99800781 29.02808594 -4.80851563 30.24367188 -4.61328125 31.49609375 C-4.09223166 34.47304588 -3.50967522 37.4207923 -2.875 40.375 C-2.23303978 43.39221304 -1.91747636 46.10465252 -2 49.1875 C-2 53.19221993 -1.11212565 56.17706806 0 60 C0.07403678 62.33215844 0.09515886 64.66860788 0 67 C0.66 67 1.32 67 2 67 C2.12117187 68.27617188 2.24234375 69.55234375 2.3671875 70.8671875 C2.53599491 72.53650526 2.7052911 74.20577365 2.875 75.875 C2.95363281 76.71675781 3.03226563 77.55851562 3.11328125 78.42578125 C3.19707031 79.23144531 3.28085938 80.03710938 3.3671875 80.8671875 C3.44050293 81.61081543 3.51381836 82.35444336 3.58935547 83.12060547 C3.87391282 85.23382504 3.87391282 85.23382504 6 87 C7.32 87 8.64 87 10 87 C10 87.99 10 88.98 10 90 C9.01 90 8.02 90 7 90 C6.505 90.99 6.505 90.99 6 92 C5.01 91.67 4.02 91.34 3 91 C3 91.66 3 92.32 3 93 C2.34 93 1.68 93 1 93 C0.93941406 92.36191406 0.87882813 91.72382813 0.81640625 91.06640625 C0.73261719 90.24011719 0.64882812 89.41382813 0.5625 88.5625 C0.48128906 87.73878906 0.40007812 86.91507812 0.31640625 86.06640625 C0.21069185 84.01337975 0.21069185 84.01337975 -1 83 C-1.04080783 81.00041636 -1.04254356 78.99954746 -1 77 C-1.99 76.67 -2.98 76.34 -4 76 C-5.79638822 66.97921242 -6.37233546 58.18355593 -6.5625 49 C-6.75561002 40.86472665 -7.03617376 32.79013957 -7.76635742 24.68408203 C-8.09321243 20.92917712 -8.27921277 17.20635912 -8.375 13.4375 C-8.41238281 12.75365234 -8.44976562 12.06980469 -8.48828125 11.36523438 C-8.5234375 9.37109375 -8.5234375 9.37109375 -8 6 C-5.38389986 3.86949705 -3.19047942 3.06349314 0 2 C0 1.34 0 0.68 0 0 Z " fill="#EACE22" transform="translate(161,53)"/>
<path xmlns="http://www.w3.org/2000/svg" d="M0 0 C1.37432457 3.81756824 0.67975039 7.07255329 0 11 C-0.66 11 -1.32 11 -2 11 C-2 11.66 -2 12.32 -2 13 C-1.34 13 -0.68 13 0 13 C-0.72485741 20.53851708 -2.47939496 27.76347932 -4.58984375 35.03125 C-5.09893178 37.47487255 -5.09531161 39.75631741 -5.0625 42.25 C-5.04896484 43.58804688 -5.04896484 43.58804688 -5.03515625 44.953125 C-5.02355469 45.62859375 -5.01195312 46.3040625 -5 47 C-5.66 47 -6.32 47 -7 47 C-7 47.61488281 -7 48.22976562 -7 48.86328125 C-7 61 -7 61 -9 65 C-8.01 65.33 -7.02 65.66 -6 66 C-6.474375 66.928125 -6.94875 67.85625 -7.4375 68.8125 C-9.92095431 74.54084508 -10 80.83072103 -10 87 C-10.495 87.99 -10.495 87.99 -11 89 C-11.2322646 91.71262116 -11.41936235 94.40773126 -11.5625 97.125 C-11.60568359 97.87910156 -11.64886719 98.63320312 -11.69335938 99.41015625 C-11.7994832 101.27321888 -11.90025001 103.13658524 -12 105 C-11.34 105 -10.68 105 -10 105 C-10 105.99 -10 106.98 -10 108 C-9.34 108 -8.68 108 -8 108 C-8.57344937 110.86724686 -8.8614515 111.8614515 -11 114 C-16.45528409 100.00601037 -15.00152907 86.52935464 -13.75 71.8125 C-13.6830896 71.02176086 -13.6161792 70.23102173 -13.54724121 69.4163208 C-9.15728113 18.31456226 -9.15728113 18.31456226 0 0 Z " fill="#1E659F" transform="translate(21,63)"/>
<path xmlns="http://www.w3.org/2000/svg" d="M0 0 C1.134375 0.020625 2.26875 0.04125 3.4375 0.0625 C3.7675 1.3825 4.0975 2.7025 4.4375 4.0625 C5.0975 4.0625 5.7575 4.0625 6.4375 4.0625 C6.4375 5.0525 6.4375 6.0425 6.4375 7.0625 C5.4475 7.0625 4.4575 7.0625 3.4375 7.0625 C3.4375 10.0325 3.4375 13.0025 3.4375 16.0625 C1.1275 16.3925 -1.1825 16.7225 -3.5625 17.0625 C-3.68625 17.76375 -3.81 18.465 -3.9375 19.1875 C-4.60088345 22.23906387 -5.53461955 25.11590938 -6.5625 28.0625 C-7.2225 28.0625 -7.8825 28.0625 -8.5625 28.0625 C-8.50103355 29.41783527 -8.41189173 30.77191719 -8.3125 32.125 C-8.26609375 32.87910156 -8.2196875 33.63320312 -8.171875 34.41015625 C-7.66603192 37.29124091 -7.66603192 37.29124091 -5.5390625 40.234375 C-2.81626942 44.75991665 -3.04356061 49.09469723 -3.1875 54.25 C-3.18878906 55.13880859 -3.19007812 56.02761719 -3.19140625 56.94335938 C-3.25355859 61.53917951 -3.43626919 63.81003838 -5.5625 68.0625 C-5.8925 65.0925 -6.2225 62.1225 -6.5625 59.0625 C-6.8925 59.0625 -7.2225 59.0625 -7.5625 59.0625 C-7.59988281 57.91652344 -7.63726562 56.77054688 -7.67578125 55.58984375 C-7.74148584 54.05986554 -7.80793159 52.52991903 -7.875 51 C-7.89755859 50.24783203 -7.92011719 49.49566406 -7.94335938 48.72070312 C-8.12453822 44.91594739 -8.49255558 41.81100853 -10.08984375 38.328125 C-11.53468761 35.12417415 -11.91954608 33.32723597 -11.8125 29.875 C-11.78671875 28.946875 -11.7609375 28.01875 -11.734375 27.0625 C-11.4473297 22.05225472 -11.05062194 17.0570334 -10.5625 12.0625 C-9.5725 12.0625 -8.5825 12.0625 -7.5625 12.0625 C-7.8925 10.4125 -8.2225 8.7625 -8.5625 7.0625 C-7.9025 7.0625 -7.2425 7.0625 -6.5625 7.0625 C-6.253125 6.093125 -5.94375 5.12375 -5.625 4.125 C-4.21956052 0.07402738 -4.21956052 0.07402738 0 0 Z " fill="#C76D31" transform="translate(72.5625,44.9375)"/>
<path xmlns="http://www.w3.org/2000/svg" d="M0 0 C2.34585188 3.31179089 1.89767068 5.78016484 1.3046875 9.65625 C0.45815931 16.16800534 0.1688858 21.9160908 3.265625 27.83203125 C5.07476939 33.17285643 4.7905756 39.38887047 5 45 C5.33 45 5.66 45 6 45 C6.08302368 46.13429443 6.08302368 46.13429443 6.16772461 47.29150391 C6.42147068 50.73621904 6.67944491 54.1806051 6.9375 57.625 C7.02451172 58.81480469 7.11152344 60.00460938 7.20117188 61.23046875 C7.28818359 62.38417969 7.37519531 63.53789063 7.46484375 64.7265625 C7.543396 65.78439941 7.62194824 66.84223633 7.70288086 67.93212891 C7.99888008 70.98843644 8.48819376 73.97357549 9 77 C9.06388388 78.95740193 9.08638169 80.91670147 9.0625 82.875 C9.05347656 83.84179688 9.04445313 84.80859375 9.03515625 85.8046875 C9.02355469 86.52914062 9.01195313 87.25359375 9 88 C9.99 88.33 10.98 88.66 12 89 C11.505 89.99 11.505 89.99 11 91 C17.29122419 92.35195594 17.29122419 92.35195594 23.0625 90.0625 C23.701875 89.381875 24.34125 88.70125 25 88 C25.33 89.98 25.66 91.96 26 94 C26.99 93.505 26.99 93.505 28 93 C26.74797133 96.75608601 25.36936427 97.14684965 22 99 C21.67 99.33 21.34 99.66 21 100 C19.1875 100.1328125 19.1875 100.1328125 17 100.125 C16.278125 100.12757813 15.55625 100.13015625 14.8125 100.1328125 C13 100 13 100 12 99 C11.34 100.32 10.68 101.64 10 103 C7.26389106 88.29891309 5.31439636 73.5912003 3.75512695 58.72839355 C2.60327587 47.7858083 1.2117373 36.94215077 -0.78125 26.11352539 C-2.29235992 17.57011812 -3.62285761 8.15142962 0 0 Z " fill="#CCB199" transform="translate(61,57)"/>
<path xmlns="http://www.w3.org/2000/svg" d="M0 0 C0.33 0 0.66 0 1 0 C1.34197019 3.12411592 1.67192253 6.24939708 2 9.375 C2.09539062 10.24511719 2.19078125 11.11523438 2.2890625 12.01171875 C4.04173824 28.91252048 1.67236697 45.31586911 -5 61 C-6.65625 62.79296875 -6.65625 62.79296875 -8 64 C-8 64.66 -8 65.32 -8 66 C-7.34 66 -6.68 66 -6 66 C-4.3553326 63.53673288 -4.3553326 63.53673288 -3 61 C-2.01 62.32 -1.02 63.64 0 65 C-0.99 65.495 -0.99 65.495 -2 66 C-2.66 65.67 -3.32 65.34 -4 65 C-4 65.99 -4 66.98 -4 68 C-9.66384778 72.09725159 -9.66384778 72.09725159 -13.46875 71.8203125 C-15.68898918 71.30740914 -17.84021963 70.72482425 -20 70 C-20.66 71.32 -21.32 72.64 -22 74 C-22 68.72 -22 63.44 -22 58 C-21.34 58.99 -20.68 59.98 -20 61 C-18.89661743 62.85353452 -18.89661743 62.85353452 -17 64 C-13.35458155 63.76522801 -13.35458155 63.76522801 -10 63 C-8.55563552 59.34094331 -7.8739921 56.08027899 -7.625 52.1875 C-7.19070003 46.87134671 -5.43058249 42.69912616 -3 38 C-2.67 37.34 -2.34 36.68 -2 36 C-1.34 36 -0.68 36 0 36 C0 24.12 0 12.24 0 0 Z " fill="#E8D13E" transform="translate(179,86)"/>
<path xmlns="http://www.w3.org/2000/svg" d="M0 0 C1.15628906 0.25136719 1.15628906 0.25136719 2.3359375 0.5078125 C3.33882812 0.71148437 4.34171875 0.91515625 5.375 1.125 C6.87160156 1.43824219 6.87160156 1.43824219 8.3984375 1.7578125 C9.68621094 1.87769531 9.68621094 1.87769531 11 2 C11.66 1.34 12.32 0.68 13 0 C14.34262065 0.29369827 15.67696283 0.6278958 17 1 C17.66 0.67 18.32 0.34 19 0 C18.67 1.32 18.34 2.64 18 4 C17.34 4 16.68 4 16 4 C15.690625 4.969375 15.38125 5.93875 15.0625 6.9375 C14 10 14 10 13 11 C12.76807135 12.51469448 12.58784762 14.03754562 12.4375 15.5625 C12.35371094 16.38878906 12.26992187 17.21507812 12.18359375 18.06640625 C12.12300781 18.70449219 12.06242188 19.34257812 12 20 C12.99 20 13.98 20 15 20 C15.33 20.99 15.66 21.98 16 23 C16.99 22.67 17.98 22.34 19 22 C22.0004856 23.00016187 24.32521756 24.3372974 27 26 C23.58802461 28.27465026 22.00991625 28.17430194 18.046875 27.5234375 C10.96541923 25.71253087 6.88068875 19.77203452 3 14 C0.29934738 9.38797 -0.32756277 5.35019196 0 0 Z " fill="#326AA1" transform="translate(158,155)"/>
<path xmlns="http://www.w3.org/2000/svg" d="M0 0 C6.92988052 0.14437251 10.19760593 3.22255343 15 8 C14.67 9.32 14.34 10.64 14 12 C12.700625 12.12375 12.700625 12.12375 11.375 12.25 C6.17503936 13.40554681 2.97939373 15.63172935 -0.125 19.96875 C-6.88718322 32.70419507 -10.57298437 46.0517261 -14 60 C-14.33 60 -14.66 60 -15 60 C-15.19347551 54.15274012 -15.2381007 48.7933065 -13.55859375 43.1640625 C-12.85625283 40.44310538 -12.5504198 37.72334153 -12.1875 34.9375 C-11.29324579 29.33066806 -9.81906122 26.19165256 -6 22 C-5.01 21.67 -4.02 21.34 -3 21 C-2.938125 20.0925 -2.87625 19.185 -2.8125 18.25 C-1.80187958 14.20751833 -0.17382073 13.52278058 3 11 C3.41870553 8.33071879 3.41870553 8.33071879 3 6 C1.68 5.67 0.36 5.34 -1 5 C-0.67 3.35 -0.34 1.7 0 0 Z " fill="#4B7DAE" transform="translate(149,26)"/>
<path xmlns="http://www.w3.org/2000/svg" d="M0 0 C1.32 0.66 2.64 1.32 4 2 C3.3836886 8.53290083 3.3836886 8.53290083 1.5625 10.75 C0.7890625 11.36875 0.7890625 11.36875 0 12 C-0.99 13.485 -0.99 13.485 -2 15 C-4 17.1875 -4 17.1875 -6 19 C-6.66 19 -7.32 19 -8 19 C-8.1546875 20.0828125 -8.1546875 20.0828125 -8.3125 21.1875 C-9.07926169 24.32425235 -10.09854016 26.39429577 -12 29 C-14.1875 30.3125 -14.1875 30.3125 -16 31 C-14.515 34.465 -14.515 34.465 -13 38 C-16.03576518 37.67418534 -17.59896809 37.39755224 -19.80078125 35.21484375 C-23.38271513 29.81880382 -24.7070052 26.48088099 -24 20 C-23.34 20.33 -22.68 20.66 -22 21 C-16.71910055 21.60483351 -16.71910055 21.60483351 -12.1875 19.5625 C-11.795625 19.046875 -11.40375 18.53125 -11 18 C-10.01 17.67 -9.02 17.34 -8 17 C-7.09721088 14.97635676 -6.54616787 12.94247804 -5.94140625 10.8125 C-5 9 -5 9 -2.90234375 8.25 C-1.96068359 8.12625 -1.96068359 8.12625 -1 8 C-1 7.34 -1 6.68 -1 6 C-0.34 6 0.32 6 1 6 C0.67 4.02 0.34 2.04 0 0 Z " fill="#466A97" transform="translate(96,135)"/>
<path xmlns="http://www.w3.org/2000/svg" d="M0 0 C0.33 0 0.66 0 1 0 C1.144375 1.134375 1.28875 2.26875 1.4375 3.4375 C1.61171478 6.80777201 1.61171478 6.80777201 3 8 C3.07179964 9.51928038 3.08392007 11.04167482 3.0625 12.5625 C3.05347656 13.38878906 3.04445313 14.21507812 3.03515625 15.06640625 C3.01775391 16.02353516 3.01775391 16.02353516 3 17 C3.66 17 4.32 17 5 17 C5.33 15.68 5.66 14.36 6 13 C6.66 13 7.32 13 8 13 C8.12375 14.051875 8.2475 15.10375 8.375 16.1875 C8.91140782 19.45958771 9.63880035 22.00536076 11 25 C14.87797662 25.43386092 14.87797662 25.43386092 16.75 23.5 C17.1625 23.005 17.575 22.51 18 22 C17.31740614 29.23549488 17.31740614 29.23549488 14 32 C13.67 32.99 13.34 33.98 13 35 C6.25 34.125 6.25 34.125 4 33 C4 32.34 4 31.68 4 31 C3.34 30.67 2.68 30.34 2 30 C1.50906448 27.39379911 1.1499901 24.8810398 0.875 22.25 C0.79008301 21.48953369 0.70516602 20.72906738 0.61767578 19.94555664 C-0.07613116 13.27761124 -0.20984771 6.70346861 0 0 Z " fill="#C86F2A" transform="translate(68,115)"/>
<path xmlns="http://www.w3.org/2000/svg" d="M0 0 C3.25668629 2.91507584 4.85407721 5.42407981 6.39453125 9.5 C6.79220703 10.551875 7.18988281 11.60375 7.59960938 12.6875 C7.99986328 13.780625 8.40011719 14.87375 8.8125 16 C9.44188477 17.6396875 9.44188477 17.6396875 10.08398438 19.3125 C10.47521484 20.364375 10.86644531 21.41625 11.26953125 22.5 C11.62635986 23.4590625 11.98318848 24.418125 12.35083008 25.40625 C13.02458703 28.09823717 12.94385565 29.42949951 12 32 C11.62488281 31.02417969 11.24976562 30.04835938 10.86328125 29.04296875 C10.3472053 27.75747048 9.83023063 26.47233275 9.3125 25.1875 C8.94608398 24.22360352 8.94608398 24.22360352 8.57226562 23.24023438 C6.79037946 18.8870188 5.14283975 17.12435224 1 15 C1 14.34 1 13.68 1 13 C-2.40614946 13.02126462 -2.40614946 13.02126462 -6 14 C-8.01041003 16.93449408 -8.01041003 16.93449408 -9 20 C-9.66 20 -10.32 20 -11 20 C-10.67 21.65 -10.34 23.3 -10 25 C-10.99 25 -11.98 25 -13 25 C-12.40049704 21.31733897 -11.75241109 17.65456815 -11 14 C-11.66 13.67 -12.32 13.34 -13 13 C-11.59908008 9.61444353 -10.20330189 7.81809026 -7 6 C-3.25 5.3125 -3.25 5.3125 0 5 C0 3.35 0 1.7 0 0 Z " fill="#B5ACAC" transform="translate(75,32)"/>
<path xmlns="http://www.w3.org/2000/svg" d="M0 0 C2.34585188 3.31179089 1.89767068 5.78016484 1.3046875 9.65625 C0.45815931 16.16800534 0.1688858 21.9160908 3.265625 27.83203125 C5.07476939 33.17285643 4.7905756 39.38887047 5 45 C5.33 45 5.66 45 6 45 C6.33714509 49.20803702 6.66904245 53.41647218 7 57.625 C7.09539062 58.81480469 7.19078125 60.00460938 7.2890625 61.23046875 C7.42441406 62.96103516 7.42441406 62.96103516 7.5625 64.7265625 C7.64628906 65.78439941 7.73007813 66.84223633 7.81640625 67.93212891 C7.99779014 70.96307303 8.03182747 73.96445471 8 77 C7.67 77 7.34 77 7 77 C4.86447996 70.62994449 4.27676039 64.29023501 3.625 57.625 C2.5514634 47.19767995 1.14282383 36.88945908 -0.72998047 26.57470703 C-2.23844354 17.88448806 -3.68839848 8.29889658 0 0 Z " fill="#CFA587" transform="translate(61,57)"/>
<path xmlns="http://www.w3.org/2000/svg" d="M0 0 C1.32 0.66 2.64 1.32 4 2 C4 10.58 4 19.16 4 28 C3.34 28 2.68 28 2 28 C0.29304267 33.65571861 -1.39334698 39.31492008 -3 45 C-3.33 45 -3.66 45 -4 45 C-3.67 39.39 -3.34 33.78 -3 28 C-2.34 28 -1.68 28 -1 28 C-0.8029398 26.43867691 -0.61779845 24.87584736 -0.4375 23.3125 C-0.33308594 22.44238281 -0.22867188 21.57226562 -0.12109375 20.67578125 C0.00440462 17.90267221 -0.43372194 15.7073878 -1 13 C-1.08982442 10.91818698 -1.13013237 8.83374364 -1.125 6.75 C-1.12886719 5.16445312 -1.12886719 5.16445312 -1.1328125 3.546875 C-1 1 -1 1 0 0 Z " fill="#F2D422" transform="translate(175,94)"/>
<path xmlns="http://www.w3.org/2000/svg" d="M0 0 C0.99 0.33 1.98 0.66 3 1 C3 1.66 3 2.32 3 3 C3.66 3 4.32 3 5 3 C5 3.66 5 4.32 5 5 C5.66 5 6.32 5 7 5 C7 5.66 7 6.32 7 7 C7.99 7 8.98 7 10 7 C11.35439668 9.70879335 11.06501451 12.00933268 11 15 C11.99 15 12.98 15 14 15 C18.59225513 33.82004556 18.59225513 33.82004556 18 43 C16.515 43.495 16.515 43.495 15 44 C13.84683274 37.65758005 13.90492937 31.43311296 14 25 C12.68 24.67 11.36 24.34 10 24 C9.896875 22.824375 9.79375 21.64875 9.6875 20.4375 C9.32389977 17.42175691 8.69048317 14.95351945 7.4375 12.1875 C6 9 6 9 6 6 C4.35 6 2.7 6 1 6 C0.67 4.02 0.34 2.04 0 0 Z " fill="#EFD53A" transform="translate(161,53)"/>
<path xmlns="http://www.w3.org/2000/svg" d="M0 0 C0.33 0 0.66 0 1 0 C1.33 1.98 1.66 3.96 2 6 C3.65 6 5.3 6 7 6 C7 8.31 7 10.62 7 13 C6.24203125 13.22429687 5.4840625 13.44859375 4.703125 13.6796875 C-0.20621378 16.07760153 -1.94701664 21.13974227 -4 26 C-4.65972627 28.752651 -4.85001588 31.15030173 -5 34 C-5.30169066 35.34084736 -5.61517681 36.6806062 -6 38 C-6.66 38 -7.32 38 -8 38 C-7.125 30.375 -7.125 30.375 -6 27 C-6.020625 26.175 -6.04125 25.35 -6.0625 24.5 C-6 22 -6 22 -4 19 C-4.66 19 -5.32 19 -6 19 C-6 18.34 -6 17.68 -6 17 C-5.34 17 -4.68 17 -4 17 C-4.061875 15.453125 -4.061875 15.453125 -4.125 13.875 C-4.00424851 10.13170373 -3.35127982 7.46265453 -2 4 C-1.34 4 -0.68 4 0 4 C0 2.68 0 1.36 0 0 Z " fill="#1166A6" transform="translate(25,57)"/>
<path xmlns="http://www.w3.org/2000/svg" d="M0 0 C1.49169935 2.84829718 2.25874929 4.97283425 2.5 8.1875 C2.665 9.445625 2.83 10.70375 3 12 C3.66 12.33 4.32 12.66 5 13 C7.02996747 18.4132466 7.23433319 23.25883676 7 29 C7.66 29 8.32 29 9 29 C9 28.34 9 27.68 9 27 C11.89234315 26.17361624 13.88742431 26 17 26 C16.4375 28.875 16.4375 28.875 15 32 C11.60618558 33.50836197 9.34688378 34.32762038 5.6875 33.4375 C2.71942698 30.9091415 2.09777554 27.72529451 1.58935547 23.95385742 C1.51604004 22.84888916 1.44272461 21.7439209 1.3671875 20.60546875 C1.28339844 19.40341797 1.19960937 18.20136719 1.11328125 16.96289062 C1.03464844 15.71701172 0.95601562 14.47113281 0.875 13.1875 C0.78863281 11.92228516 0.70226562 10.65707031 0.61328125 9.35351562 C0.40153172 6.23609201 0.19737668 3.11836116 0 0 Z " fill="#DCC856" transform="translate(155,117)"/>
<path xmlns="http://www.w3.org/2000/svg" d="M0 0 C2.39763185 2.39763185 2.34280586 3.33273498 2.625 6.625 C2.69976562 7.44226562 2.77453125 8.25953125 2.8515625 9.1015625 C2.92503906 10.04128906 2.92503906 10.04128906 3 11 C2.319375 10.835 1.63875 10.67 0.9375 10.5 C-2.4164822 9.92910941 -5.60389805 9.93340977 -9 10 C-9 10.99 -9 11.98 -9 13 C-9.61875 13.268125 -10.2375 13.53625 -10.875 13.8125 C-13.2995233 14.95556848 -13.2995233 14.95556848 -15 18 C-15 16.68 -15 15.36 -15 14 C-15.66 13.67 -16.32 13.34 -17 13 C-13.62338001 7.51299252 -10.37990571 3.8152033 -4 2 C-3.01 2.33 -2.02 2.66 -1 3 C-0.67 2.01 -0.34 1.02 0 0 Z " fill="#D6DBB8" transform="translate(164,35)"/>
<path xmlns="http://www.w3.org/2000/svg" d="M0 0 C0.76441406 -0.01417969 1.52882812 -0.02835938 2.31640625 -0.04296875 C4.4375 0.1875 4.4375 0.1875 7.4375 2.1875 C5.03347806 2.92719906 3.16120312 3.18136007 0.625 3.125 C-3.13097764 3.19864662 -6.05655764 3.83906063 -9.5625 5.1875 C-11.05993888 7.17317734 -11.05993888 7.17317734 -11.5625 9.1875 C-12.8825 9.1875 -14.2025 9.1875 -15.5625 9.1875 C-15.5625 9.8475 -15.5625 10.5075 -15.5625 11.1875 C-16.34625 11.414375 -17.13 11.64125 -17.9375 11.875 C-20.74765193 12.9564321 -20.74765193 12.9564321 -21.8125 15.625 C-22.06 16.470625 -22.3075 17.31625 -22.5625 18.1875 C-22.8925 19.1775 -23.2225 20.1675 -23.5625 21.1875 C-24.2225 21.1875 -24.8825 21.1875 -25.5625 21.1875 C-25.830625 22.115625 -26.09875 23.04375 -26.375 24 C-27.47398371 26.94990366 -28.18668561 28.24365186 -30.5625 30.1875 C-30.8925 29.5275 -31.2225 28.8675 -31.5625 28.1875 C-27.58548267 17.25934802 -20.43657975 7.94770212 -10.38671875 2.02734375 C-6.94332531 0.44205555 -3.77039599 0.03189844 0 0 Z " fill="#275E8C" transform="translate(144.5625,23.8125)"/>
<path xmlns="http://www.w3.org/2000/svg" d="M0 0 C2.475 0.99 2.475 0.99 5 2 C5.33 1.34 5.66 0.68 6 0 C9.68852796 7.76999189 12.64081119 15.50505904 14.875 23.8125 C15.08987061 24.58762939 15.30474121 25.36275879 15.52612305 26.16137695 C16.91774218 31.56633138 17.18872627 36.4214735 17 42 C15.43344388 38.9863506 14.51745773 36.34485928 13.875 33 C13.70742187 32.154375 13.53984375 31.30875 13.3671875 30.4375 C13 28 13 28 13 24 C12.01 24 11.02 24 10 24 C9.89042969 23.39671875 9.78085938 22.7934375 9.66796875 22.171875 C8.77692284 17.68042409 8.03200456 14.53733865 5 11 C4.29788106 9.34795544 3.63028587 7.68076231 3 6 C1.7100286 2.83982742 1.7100286 2.83982742 -1 1 C-0.67 0.67 -0.34 0.34 0 0 Z " fill="#EEDD7B" transform="translate(162,44)"/>
<path xmlns="http://www.w3.org/2000/svg" d="M0 0 C0.99 0.33 1.98 0.66 3 1 C2.53624625 5.63753745 2.07772253 8.84455494 0 13 C-0.23433489 15.07553761 -0.46457067 17.15167139 -0.66796875 19.23046875 C-2.74387141 36.54593918 -2.74387141 36.54593918 -9 42 C-9.66 42 -10.32 42 -11 42 C-11.28875 43.134375 -11.5775 44.26875 -11.875 45.4375 C-12.24625 46.613125 -12.6175 47.78875 -13 49 C-13.99 49.495 -13.99 49.495 -15 50 C-15.66 50.99 -16.32 51.98 -17 53 C-18.15837626 48.94568308 -17.83691257 46.78187881 -16 43 C-15.34 43 -14.68 43 -14 43 C-13.731875 42.401875 -13.46375 41.80375 -13.1875 41.1875 C-12.00150961 39.00278087 -10.77943518 37.70529205 -9 36 C-8.34 35.01 -7.68 34.02 -7 33 C-6.34 33 -5.68 33 -5 33 C-5.020625 31.88625 -5.04125 30.7725 -5.0625 29.625 C-5 26 -5 26 -4 24 C-3.82017877 22.25316524 -3.67978837 20.50214463 -3.5625 18.75 C-3.2152299 14.51661217 -2.45569727 11.00316749 -1 7 C-0.62468554 4.67305036 -0.28082798 2.34023315 0 0 Z " fill="#195FAA" transform="translate(104,111)"/>
<path xmlns="http://www.w3.org/2000/svg" d="M0 0 C2.0625 0.4375 2.0625 0.4375 4 1 C2.90500481 3.74527229 1.79934482 6.48427921 0.66796875 9.21484375 C-3.88362371 20.52169919 -6.54455493 32.08202771 -9 44 C-9.33 44 -9.66 44 -10 44 C-9.91852902 40.79067345 -9.80574254 37.58316561 -9.6875 34.375 C-9.66494141 33.47136719 -9.64238281 32.56773438 -9.61914062 31.63671875 C-9.40335781 26.26176512 -8.62832148 22.7818938 -6 18 C-5.50938088 15.06970117 -5.50938088 15.06970117 -5.4375 12.1875 C-5.30859375 9.29296875 -5.30859375 9.29296875 -5 7 C-4.34 6.67 -3.68 6.34 -3 6 C-2.29788106 4.34795544 -1.63028587 2.68076231 -1 1 C-0.67 0.67 -0.34 0.34 0 0 Z " fill="#20669E" transform="translate(58,44)"/>
<path xmlns="http://www.w3.org/2000/svg" d="M0 0 C1.1700097 3.91736581 0.69584017 6.97959015 0 11 C-0.66 11 -1.32 11 -2 11 C-2 11.66 -2 12.32 -2 13 C-1.34 13 -0.68 13 0 13 C-0.79194555 21.23623376 -2.21505571 29.58716306 -6 37 C-6.38290462 38.99110401 -6.72604615 40.99100513 -7 43 C-7.66 43 -8.32 43 -9 43 C-9.33 43.66 -9.66 44.32 -10 45 C-9.65661654 29.64139434 -4.73817063 14.5056844 0 0 Z " fill="#26638D" transform="translate(21,63)"/>
<path xmlns="http://www.w3.org/2000/svg" d="M0 0 C1.11307924 4.45231696 0.55870749 7.64597225 -0.29296875 12.03515625 C-0.43913635 12.82271805 -0.58530396 13.61027985 -0.73590088 14.42170715 C-1.21137878 16.97029566 -1.69909877 19.51635938 -2.1875 22.0625 C-2.51425646 23.79759411 -2.84051001 25.53278301 -3.16625977 27.26806641 C-5.29311438 38.54344878 -7.5025258 49.80014673 -10 61 C-10.33 61 -10.66 61 -11 61 C-10.91280537 57.93616098 -10.80589603 54.87515949 -10.6875 51.8125 C-10.66494141 50.94818359 -10.64238281 50.08386719 -10.61914062 49.19335938 C-10.4054524 44.12312065 -9.73842088 41.33702783 -7 37 C-6.68096487 34.39689924 -6.49419723 31.97997457 -6.4375 29.375 C-6.17099405 22.7723341 -5.41188638 16.4700036 -4 10 C-3.34 10 -2.68 10 -2 10 C-1.34 6.7 -0.68 3.4 0 0 Z " fill="#558AB9" transform="translate(133,86)"/>
<path xmlns="http://www.w3.org/2000/svg" d="M0 0 C0.33 0 0.66 0 1 0 C1.04898438 1.01578125 1.09796875 2.0315625 1.1484375 3.078125 C1.5930859 11.50693339 2.38053854 19.69829465 4 28 C4.33 28 4.66 28 5 28 C5.07516846 29.08716309 5.07516846 29.08716309 5.15185547 30.19628906 C5.38699566 33.54796992 5.63095659 36.8989561 5.875 40.25 C5.95363281 41.38953125 6.03226563 42.5290625 6.11328125 43.703125 C6.60445356 50.35284243 7.36403166 56.860883 8.54101562 63.42504883 C10.00453838 71.63556718 10.11588691 79.66901909 10 88 C9.67 88 9.34 88 9 88 C8.90501221 87.19933105 8.81002441 86.39866211 8.7121582 85.57373047 C8.33500415 82.40474107 7.95600393 79.23597906 7.57556152 76.06738281 C7.39991995 74.60356715 7.22470965 73.13969969 7.04992676 71.67578125 C5.98293006 62.75446275 4.85790047 53.84477822 3.62109375 44.9453125 C3.39078179 43.26970601 3.16055667 41.59408759 2.93041992 39.91845703 C2.59685223 37.49222271 2.25966804 35.06684283 1.90908813 32.64300537 C0.32478 21.6857315 -0.28377546 11.07074642 0 0 Z " fill="#F5EAB9" transform="translate(147,56)"/>
<path xmlns="http://www.w3.org/2000/svg" d="M0 0 C0.66 0 1.32 0 2 0 C2 4.29 2 8.58 2 13 C2.99 13.33 3.98 13.66 5 14 C8.56676487 19.19561534 8.42269427 24.06872265 8.3125 30.125 C8.31572266 31.01832031 8.31894531 31.91164063 8.32226562 32.83203125 C8.28424122 37.45718137 8.14064523 39.71870954 6 44 C5.67 41.03 5.34 38.06 5 35 C4.67 35 4.34 35 4 35 C3.96261719 33.85402344 3.92523438 32.70804688 3.88671875 31.52734375 C3.82101416 29.99736554 3.75456841 28.46741903 3.6875 26.9375 C3.66494141 26.18533203 3.64238281 25.43316406 3.61914062 24.65820312 C3.37218577 19.47215116 2.12392785 15.79013515 0 11 C-0.29296875 7.91015625 -0.29296875 7.91015625 -0.1875 5.0625 C-0.16042969 4.10472656 -0.13335937 3.14695312 -0.10546875 2.16015625 C-0.07066406 1.44730469 -0.03585938 0.73445313 0 0 Z " fill="#C4723B" transform="translate(61,69)"/>
<path xmlns="http://www.w3.org/2000/svg" d="M0 0 C1.134375 0.020625 2.26875 0.04125 3.4375 0.0625 C3.7675 1.3825 4.0975 2.7025 4.4375 4.0625 C5.0975 4.0625 5.7575 4.0625 6.4375 4.0625 C6.4375 5.0525 6.4375 6.0425 6.4375 7.0625 C5.4475 7.0625 4.4575 7.0625 3.4375 7.0625 C3.4375 8.3825 3.4375 9.7025 3.4375 11.0625 C2.550625 10.85625 1.66375 10.65 0.75 10.4375 C-2.7877711 10.03699761 -4.42882967 10.49566484 -7.5625 12.0625 C-7.8925 10.4125 -8.2225 8.7625 -8.5625 7.0625 C-7.9025 7.0625 -7.2425 7.0625 -6.5625 7.0625 C-6.253125 6.093125 -5.94375 5.12375 -5.625 4.125 C-4.21956052 0.07402738 -4.21956052 0.07402738 0 0 Z " fill="#B0795A" transform="translate(72.5625,44.9375)"/>
<path xmlns="http://www.w3.org/2000/svg" d="M0 0 C0.08114106 1.77007714 0.13925505 3.54122098 0.1875 5.3125 C0.22230469 6.29863281 0.25710937 7.28476562 0.29296875 8.30078125 C-0.05194429 11.47858001 -0.73945975 11.91028143 -3 14 C-3.65654105 16.33892748 -4.00236331 18.64021378 -4.375 21.0390625 C-4.58125 21.68617187 -4.7875 22.33328125 -5 23 C-5.99 23.33 -6.98 23.66 -8 24 C-8.33 24.66 -8.66 25.32 -9 26 C-9.83582615 16.89878189 -7.8203836 9.21961319 -4 1 C-2 0 -2 0 0 0 Z " fill="#20649E" transform="translate(116,53)"/>
<path xmlns="http://www.w3.org/2000/svg" d="M0 0 C2.77082834 2.77082834 2.53096421 5.18070857 3 9 C3.33 9.99 3.66 10.98 4 12 C5.56215548 12.16986545 7.1247452 12.33573964 8.6875 12.5 C9.55761719 12.5928125 10.42773438 12.685625 11.32421875 12.78125 C13.89723339 12.99159864 16.41984364 13.03719144 19 13 C19 13.66 19 14.32 19 15 C14.33194314 17.33402843 8.06560089 16.52264136 3 16 C0.01794758 14.6637516 -0.92385638 13.62571105 -3 11 C-3 10.01 -3 9.02 -3 8 C-3.31088368 6.32900023 -3.64080332 4.66128463 -4 3 C-2.68 2.01 -1.36 1.02 0 0 Z " fill="#2C649C" transform="translate(84,163)"/>
<path xmlns="http://www.w3.org/2000/svg" d="M0 0 C0.99 0.66 1.98 1.32 3 2 C3.08367069 5.0270861 3.00031368 7.81109724 2.75 10.8125 C2.69714844 11.62009766 2.64429687 12.42769531 2.58984375 13.25976562 C1.98503105 21.84669937 1.98503105 21.84669937 1 25 C0.01 25.66 -0.98 26.32 -2 27 C-2.25030977 29.58380177 -2.25030977 29.58380177 -2 32 C-2.99 32.495 -2.99 32.495 -4 33 C-3.8598002 29.64557336 -3.71181572 26.29153225 -3.5625 22.9375 C-3.52318359 21.99455078 -3.48386719 21.05160156 -3.44335938 20.08007812 C-2.81425358 6.19135788 -2.81425358 6.19135788 0 0 Z " fill="#1762A4" transform="translate(108,77)"/>
<path xmlns="http://www.w3.org/2000/svg" d="M0 0 C0.66 0 1.32 0 2 0 C2.3389231 3.35362609 2.67011964 6.70797332 3 10.0625 C3.09539062 11.00544922 3.19078125 11.94839844 3.2890625 12.91992188 C3.78225278 17.97512222 4.11270932 22.92103608 4 28 C4.99 28 5.98 28 7 28 C8.28446919 30.56893838 8.32977144 32.76576337 8.5625 35.625 C8.64628906 36.62789062 8.73007813 37.63078125 8.81640625 38.6640625 C8.87699219 39.43492187 8.93757812 40.20578125 9 41 C9.66 41 10.32 41 11 41 C11 41.99 11 42.98 11 44 C10.34 44 9.68 44 9 44 C9 44.66 9 45.32 9 46 C8.34 46 7.68 46 7 46 C6.93941406 45.36191406 6.87882813 44.72382813 6.81640625 44.06640625 C6.69072266 42.82697266 6.69072266 42.82697266 6.5625 41.5625 C6.48128906 40.73878906 6.40007812 39.91507813 6.31640625 39.06640625 C6.21069185 37.01337975 6.21069185 37.01337975 5 36 C4.95919217 34.00041636 4.95745644 31.99954746 5 30 C4.01 29.67 3.02 29.34 2 29 C-0.10084738 19.2648233 -0.21105492 9.89613084 0 0 Z " fill="#E6CB40" transform="translate(155,100)"/>
<path xmlns="http://www.w3.org/2000/svg" d="M0 0 C0.66 0 1.32 0 2 0 C1.34 1.98 0.68 3.96 0 6 C-0.66 6 -1.32 6 -2 6 C-2.33 6.99 -2.66 7.98 -3 9 C-2.34 9.33 -1.68 9.66 -1 10 C-1.99 10.495 -1.99 10.495 -3 11 C-4.13350534 13.01669827 -4.13350534 13.01669827 -5 15 C-6.32 15 -7.64 15 -9 15 C-8.96519531 15.56847656 -8.93039063 16.13695313 -8.89453125 16.72265625 C-8.69769408 22.33720226 -9.44504683 25.99655005 -12 31 C-14.62776791 26.51554665 -14.07596795 22.94432891 -13 18 C-11.4375 14.4375 -11.4375 14.4375 -10 12 C-9.34 12 -8.68 12 -8 12 C-7.938125 11.278125 -7.87625 10.55625 -7.8125 9.8125 C-6.7446249 6.11600926 -4.89180184 4.46861132 -2 2 C-1.34 2 -0.68 2 0 2 C0 1.34 0 0.68 0 0 Z " fill="#1964A2" transform="translate(129,33)"/>
<path xmlns="http://www.w3.org/2000/svg" d="M0 0 C0.66 0 1.32 0 2 0 C2.1953125 1.98567708 2.390625 3.97135417 2.5859375 5.95703125 C2.92665391 8.29988142 2.92665391 8.29988142 5 11 C5.125 13.6875 5.125 13.6875 5 16 C9.53140653 16.93380961 9.53140653 16.93380961 14 16 C14.66 16.66 15.32 17.32 16 18 C15 19.5 15 19.5 13 21 C10.28153765 21.27345479 7.74322801 21.13491285 5 21 C5 20.34 5 19.68 5 19 C3.02 18.34 1.04 17.68 -1 17 C-0.33333333 15 0.33333333 13 1 11 C0.34 11 -0.32 11 -1 11 C-1 10.01 -1 9.02 -1 8 C-1.66 8 -2.32 8 -3 8 C-3 6.35 -3 4.7 -3 3 C-2.67 4.32 -2.34 5.64 -2 7 C-1.34 7 -0.68 7 0 7 C0 4.69 0 2.38 0 0 Z " fill="#1F5C90" transform="translate(12,160)"/>
<path xmlns="http://www.w3.org/2000/svg" d="M0 0 C0.99 0.495 0.99 0.495 2 1 C3.64356807 1.09585131 5.29114642 1.12983511 6.9375 1.125 C7.81277344 1.12757813 8.68804687 1.13015625 9.58984375 1.1328125 C12.14459056 1.09822003 12.14459056 1.09822003 15 0 C14.25 2.4375 14.25 2.4375 13 5 C10.9375 5.625 10.9375 5.625 9 6 C8.67 6.99 8.34 7.98 8 9 C6.68 8.67 5.36 8.34 4 8 C4 8.66 4 9.32 4 10 C4.99 10.66 5.98 11.32 7 12 C8.1875 15.125 8.1875 15.125 9 18 C4.18797696 15.9641441 2.04569467 12.71577808 0 8 C-0.38745435 5.17780165 -0.25571746 2.86403558 0 0 Z " fill="#3F4765" transform="translate(72,155)"/>
<path xmlns="http://www.w3.org/2000/svg" d="M0 0 C0.33 0 0.66 0 1 0 C1.11003588 8.28936974 1.00311285 16.53366045 0.5625 24.8125 C0.52326416 25.5947998 0.48402832 26.37709961 0.44360352 27.18310547 C0.12319843 32.75360315 0.12319843 32.75360315 -1 35 C-1.15344209 36.88472859 -1.24959571 38.77427874 -1.31640625 40.6640625 C-1.35830078 41.78554687 -1.40019531 42.90703125 -1.44335938 44.0625 C-1.48267578 45.238125 -1.52199219 46.41375 -1.5625 47.625 C-1.60568359 48.80835938 -1.64886719 49.99171875 -1.69335938 51.2109375 C-1.79967426 54.14050328 -1.90170642 57.07015588 -2 60 C-2.33 60 -2.66 60 -3 60 C-5.41367601 49.28683477 -3.72096678 37.93308671 -2.77319336 27.09838867 C-2.56138608 24.67475384 -2.35724531 22.2505631 -2.15429688 19.82617188 C-2.02127592 18.26298311 -1.88782755 16.69983064 -1.75390625 15.13671875 C-1.6934462 14.42303635 -1.63298615 13.70935394 -1.57069397 12.9740448 C-1.18741844 8.61979922 -0.65395418 4.31962298 0 0 Z " fill="#95B5CD" transform="translate(10,109)"/>
<path xmlns="http://www.w3.org/2000/svg" d="M0 0 C6.92988052 0.14437251 10.19760593 3.22255343 15 8 C14.67 9.32 14.34 10.64 14 12 C12.6696875 12.185625 12.6696875 12.185625 11.3125 12.375 C8.29612498 12.94412736 5.79673946 13.76614436 3 15 C4.04874998 12.37812506 4.64931313 11.20628639 7.125 9.75 C7.74375 9.5025 8.3625 9.255 9 9 C5.77484237 7.26337666 2.48670834 6.1094072 -1 5 C-0.67 3.35 -0.34 1.7 0 0 Z " fill="#2F699F" transform="translate(149,26)"/>
<path xmlns="http://www.w3.org/2000/svg" d="M0 0 C0.33 0 0.66 0 1 0 C1.19412181 1.47831221 1.38012131 2.95769316 1.5625 4.4375 C1.66691406 5.26121094 1.77132812 6.08492188 1.87890625 6.93359375 C1.91886719 7.61550781 1.95882812 8.29742187 2 9 C1.67 9.33 1.34 9.66 1 10 C0.7971184 11.48773622 0.6529627 12.98359146 0.53515625 14.48046875 C0.45716797 15.39763672 0.37917969 16.31480469 0.29882812 17.25976562 C0.14286758 19.19187184 -0.0108262 21.12416255 -0.16210938 23.05664062 C-0.58539888 27.98813543 -1.13582086 32.35905192 -3 37 C-3.33 37 -3.66 37 -4 37 C-4.495 39.475 -4.495 39.475 -5 42 C-5.33 42 -5.66 42 -6 42 C-6.26315208 34.84226349 -5.25343641 28.0587299 -4.125 21 C-3.95097656 19.86304687 -3.77695313 18.72609375 -3.59765625 17.5546875 C-2.66648774 11.60900414 -1.58005403 5.80776617 0 0 Z " fill="#2F6791" transform="translate(106,72)"/>
<path xmlns="http://www.w3.org/2000/svg" d="M0 0 C0.88336837 2.4667645 1.1312406 3.63859372 0.22265625 6.140625 C-0.16019531 6.83671875 -0.54304688 7.5328125 -0.9375 8.25 C-1.31777344 8.95640625 -1.69804688 9.6628125 -2.08984375 10.390625 C-2.39019531 10.92171875 -2.69054688 11.4528125 -3 12 C-3.66 12 -4.32 12 -5 12 C-4.896875 12.86625 -4.79375 13.7325 -4.6875 14.625 C-5.1187383 19.28237362 -6.72729512 20.72729512 -10 24 C-10.66 24 -11.32 24 -12 24 C-12 25.32 -12 26.64 -12 28 C-12.66 28 -13.32 28 -14 28 C-14.33 28.66 -14.66 29.32 -15 30 C-13.69093987 18.92333736 -6.60442093 8.71221484 0 0 Z " fill="#4F83A6" transform="translate(37,33)"/>
<path xmlns="http://www.w3.org/2000/svg" d="M0 0 C2.75 -0.25 2.75 -0.25 6 0 C8.375 2 8.375 2 10 4 C9.67 4.66 9.34 5.32 9 6 C8.01 5.34 7.02 4.68 6 4 C2.42243314 3.99917465 2.42243314 3.99917465 -1 5 C-2.45782232 6.66335851 -2.45782232 6.66335851 -3 9 C-3.37125 9.9075 -3.7425 10.815 -4.125 11.75 C-5.41699196 16.54882729 -5.36751826 20.93270978 -4.5 25.8125 C-3.7593408 30.5342024 -3.92361835 35.23039006 -4 40 C-4.33 40 -4.66 40 -5 40 C-6.48839068 32.4783114 -7.23123884 25.15573929 -7.3125 17.5 C-7.32990234 16.73510254 -7.34730469 15.97020508 -7.36523438 15.18212891 C-7.36120689 10.61798359 -6.88216728 7.59922822 -4 4 C-1.8125 3.1875 -1.8125 3.1875 0 3 C0 2.01 0 1.02 0 0 Z " fill="#CFC867" transform="translate(155,45)"/>
<path xmlns="http://www.w3.org/2000/svg" d="M0 0 C0 1.65 0 3.3 0 5 C-0.928125 5.37125 -1.85625 5.7425 -2.8125 6.125 C-6.5260303 8.30942959 -7.42687504 10.06718759 -9 14 C-9.66 14 -10.32 14 -11 14 C-10.67 15.65 -10.34 17.3 -10 19 C-10.99 19 -11.98 19 -13 19 C-12.40049704 15.31733897 -11.75241109 11.65456815 -11 8 C-11.66 7.67 -12.32 7.34 -13 7 C-10.30332745 0.48304134 -6.81821784 -0.39335872 0 0 Z " fill="#D5CFD2" transform="translate(75,38)"/>
<path xmlns="http://www.w3.org/2000/svg" d="M0 0 C4.95 0.99 4.95 0.99 10 2 C9.01 2.495 9.01 2.495 8 3 C6.81723812 7.3041861 6.46156564 10.89972108 8.4375 14.9375 C8.953125 15.618125 9.46875 16.29875 10 17 C10 17.66 10 18.32 10 19 C9.34 19 8.68 19 8 19 C8 18.34 8 17.68 8 17 C7.38640625 16.92007813 6.7728125 16.84015625 6.140625 16.7578125 C4 16 4 16 2.734375 14.1796875 C0.59738972 9.17642831 -0.46321033 5.44272132 0 0 Z " fill="#567B9E" transform="translate(158,155)"/>
<path xmlns="http://www.w3.org/2000/svg" d="M0 0 C0.99 0.495 0.99 0.495 2 1 C3.25257648 8.49182534 3.11701206 15.98532383 3.0625 23.5625 C3.05798828 24.76197266 3.05347656 25.96144531 3.04882812 27.19726562 C3.03713769 30.13156359 3.02075138 33.06575449 3 36 C-1.47742136 29.28386796 -0.12048432 19.78774088 -0.0625 12 C-0.05798828 10.84371094 -0.05347656 9.68742187 -0.04882812 8.49609375 C-0.03712529 5.66400775 -0.02072996 2.83203189 0 0 Z " fill="#E4C13A" transform="translate(152,77)"/>
<path xmlns="http://www.w3.org/2000/svg" d="M0 0 C0.66 0 1.32 0 2 0 C2 3.3 2 6.6 2 10 C1.34 10 0.68 10 0 10 C0 10.61488281 0 11.22976562 0 11.86328125 C0 19.59080681 -0.84588126 25.53238836 -3 33 C-3.33 33 -3.66 33 -4 33 C-3.86160047 28.87471501 -3.7130259 24.74985892 -3.5625 20.625 C-3.52318359 19.449375 -3.48386719 18.27375 -3.44335938 17.0625 C-3.38051758 15.38027344 -3.38051758 15.38027344 -3.31640625 13.6640625 C-3.27974854 12.62717285 -3.24309082 11.5902832 -3.20532227 10.52197266 C-3 8 -3 8 -2 6 C-1.34 6 -0.68 6 0 6 C0 4.02 0 2.04 0 0 Z " fill="#206094" transform="translate(14,100)"/>
<path xmlns="http://www.w3.org/2000/svg" d="M0 0 C1.89674947 5.6902484 -1.41749822 12.01934481 -3.8125 17.3125 C-5.85307134 21.22690338 -8.45386964 23.4209961 -12 26 C-12 22.89448334 -11.4606285 21.64738916 -10 19 C-9.34 19 -8.68 19 -8 19 C-8 17.68 -8 16.36 -8 15 C-7.34 14.67 -6.68 14.34 -6 14 C-5.07737791 11.86158619 -4.2343601 9.6883919 -3.4375 7.5 C-1.08919383 1.08919383 -1.08919383 1.08919383 0 0 Z " fill="#4A7EB2" transform="translate(121,148)"/>
<path xmlns="http://www.w3.org/2000/svg" d="M0 0 C0.99 1.32 1.98 2.64 3 4 C2.01 4.495 2.01 4.495 1 5 C0.34 4.67 -0.32 4.34 -1 4 C-1 4.99 -1 5.98 -1 7 C-6.66384778 11.09725159 -6.66384778 11.09725159 -10.46875 10.8203125 C-12.68898918 10.30740914 -14.84021963 9.72482425 -17 9 C-17.33 7.68 -17.66 6.36 -18 5 C-16.95199219 5.05800781 -15.90398437 5.11601562 -14.82421875 5.17578125 C-13.445357 5.22268131 -12.06644713 5.26818122 -10.6875 5.3125 C-9.99720703 5.35439453 -9.30691406 5.39628906 -8.59570312 5.43945312 C-6.30706875 5.54841587 -6.30706875 5.54841587 -3 5 C-0.94636481 2.6230839 -0.94636481 2.6230839 0 0 Z " fill="#AEBDB6" transform="translate(176,147)"/>
<path xmlns="http://www.w3.org/2000/svg" d="M0 0 C0.87823436 2.46129375 1.09761018 3.6936874 0.29296875 6.21875 C-0.07183594 6.9715625 -0.43664062 7.724375 -0.8125 8.5 C-1.16957031 9.2528125 -1.52664062 10.005625 -1.89453125 10.78125 C-2.25933594 11.5134375 -2.62414062 12.245625 -3 13 C-3.29261719 13.7321875 -3.58523437 14.464375 -3.88671875 15.21875 C-5 17 -5 17 -6.828125 17.77734375 C-9.23875212 18.02447639 -11.3487928 17.88030683 -13.75 17.5625 C-14.54921875 17.46066406 -15.3484375 17.35882813 -16.171875 17.25390625 C-16.77515625 17.17011719 -17.3784375 17.08632812 -18 17 C-18 19.64 -18 22.28 -18 25 C-18.33 25 -18.66 25 -19 25 C-19 19.72 -19 14.44 -19 9 C-18.01 10.485 -18.01 10.485 -17 12 C-15.89661743 13.85353452 -15.89661743 13.85353452 -14 15 C-10.49211747 15.23753308 -10.49211747 15.23753308 -7 14 C-3.37211032 9.86823675 -1.76807527 5.12741829 0 0 Z " fill="#E1DDBC" transform="translate(176,135)"/>
<path xmlns="http://www.w3.org/2000/svg" d="M0 0 C1.24286952 3.62357733 0.76999371 6.38757071 0.125 10.125 C-1.21729294 18.72293048 -1.62575619 27.31360425 -2 36 C-2.33 35.34 -2.66 34.68 -3 34 C-3.66 34 -4.32 34 -5 34 C-5.04254356 32.00045254 -5.04080783 29.99958364 -5 28 C-4.67 27.67 -4.34 27.34 -4 27 C-4.02326471 25.12401857 -4.05256944 23.24788158 -4.11523438 21.37280273 C-4.36370535 13.42928639 -3.92459905 7.13085632 0 0 Z " fill="#1661A0" transform="translate(42,110)"/>
<path xmlns="http://www.w3.org/2000/svg" d="M0 0 C0.33 0.66 0.66 1.32 1 2 C-1.72802484 6.61665742 -4.0643607 9.53218035 -9 12 C-14.15930096 12.73704299 -16.74086606 12.52011316 -21 9.5 C-21.99 8.675 -22.98 7.85 -24 7 C-22.1875 6.375 -22.1875 6.375 -20 6 C-19.01 6.66 -18.02 7.32 -17 8 C-17.33 8.66 -17.66 9.32 -18 10 C-14.7 9.67 -11.4 9.34 -8 9 C-8 8.34 -8 7.68 -8 7 C-7.34 7 -6.68 7 -6 7 C-5.67 6.01 -5.34 5.02 -5 4 C-4.01 4 -3.02 4 -2 4 C-1.34 2.68 -0.68 1.36 0 0 Z " fill="#648BAE" transform="translate(35,171)"/>
<path xmlns="http://www.w3.org/2000/svg" d="M0 0 C0.33 0 0.66 0 1 0 C1.34197019 3.12411592 1.67192253 6.24939708 2 9.375 C2.14308594 10.68017578 2.14308594 10.68017578 2.2890625 12.01171875 C3.20134196 20.8086993 3.29701236 29.24516655 2 38 C1.67 38 1.34 38 1 38 C0.12980756 29.39421862 -0.12607367 20.8960185 -0.0625 12.25 C-0.05798828 11.0640625 -0.05347656 9.878125 -0.04882812 8.65625 C-0.03719316 5.77077772 -0.0208484 2.88541787 0 0 Z " fill="#EDE28D" transform="translate(179,86)"/>
<path xmlns="http://www.w3.org/2000/svg" d="M0 0 C0.33 1.32 0.66 2.64 1 4 C-0.98 4.99 -0.98 4.99 -3 6 C-3.66 5.34 -4.32 4.68 -5 4 C-4.34 4 -3.68 4 -3 4 C-3 3.34 -3 2.68 -3 2 C-4.1446875 2.7115625 -4.1446875 2.7115625 -5.3125 3.4375 C-8 5 -8 5 -11 6 C-11.33 5.67 -11.66 5.34 -12 5 C-14.33297433 4.95907063 -16.66705225 4.95758277 -19 5 C-19 4.01 -19 3.02 -19 2 C-12.53205867 0.48766299 -6.64409958 -0.21432579 0 0 Z " fill="#18629A" transform="translate(63,26)"/>
<path xmlns="http://www.w3.org/2000/svg" d="M0 0 C0.33 0 0.66 0 1 0 C1.46546786 8.06810951 -0.45791979 15.37375936 -3 23 C-4.33333333 22.33333333 -5.66666667 21.66666667 -7 21 C-4.66666667 14 -2.33333333 7 0 0 Z " fill="#7698B0" transform="translate(184,126)"/>
<path xmlns="http://www.w3.org/2000/svg" d="M0 0 C2.35064981 3.31856443 1.89856659 5.79734411 1.296875 9.6796875 C0.18336934 18.38261334 1.22624355 27.30905704 2 36 C1.67 36 1.34 36 1 36 C-4.02816901 9.06338028 -4.02816901 9.06338028 0 0 Z " fill="#D9BAAA" transform="translate(61,57)"/>
<path xmlns="http://www.w3.org/2000/svg" d="M0 0 C-1.32 0.33 -2.64 0.66 -4 1 C-4 2.32 -4 3.64 -4 5 C-4.66 5 -5.32 5 -6 5 C-6 5.99 -6 6.98 -6 8 C-6.61875 8.268125 -7.2375 8.53625 -7.875 8.8125 C-10.2995233 9.95556848 -10.2995233 9.95556848 -12 13 C-12 11.68 -12 10.36 -12 9 C-12.66 8.67 -13.32 8.34 -14 8 C-13.26418258 6.8450079 -12.51069961 5.70125815 -11.75 4.5625 C-11.33234375 3.92441406 -10.9146875 3.28632812 -10.484375 2.62890625 C-7.62715814 -0.5065133 -4.01295615 -0.111471 0 0 Z " fill="#C0D6C3" transform="translate(161,40)"/>
<path xmlns="http://www.w3.org/2000/svg" d="M0 0 C0.99 0.33 1.98 0.66 3 1 C2.24927815 8.50721848 2.24927815 8.50721848 0.98828125 11 C-0.10493651 13.21236162 -0.29212079 14.80058051 -0.4375 17.25 C-0.85630384 21.92664286 -2.19281284 25.67846548 -4 30 C-5.125 26.25 -5.125 26.25 -4 24 C-3.82017877 22.25316524 -3.67978837 20.50214463 -3.5625 18.75 C-3.2152299 14.51661217 -2.45569727 11.00316749 -1 7 C-0.62468554 4.67305036 -0.28082798 2.34023315 0 0 Z " fill="#1561A2" transform="translate(104,111)"/>
<path xmlns="http://www.w3.org/2000/svg" d="M0 0 C0.99 0.33 1.98 0.66 3 1 C1.02 9.25 -0.96 17.5 -3 26 C-3.33 26 -3.66 26 -4 26 C-3.91852902 22.79067345 -3.80574254 19.58316561 -3.6875 16.375 C-3.66494141 15.47136719 -3.64238281 14.56773438 -3.61914062 13.63671875 C-3.40764997 8.36867874 -2.84976326 4.59934982 0 0 Z " fill="#5185B0" transform="translate(52,62)"/>
<path xmlns="http://www.w3.org/2000/svg" d="M0 0 C-0.5625 2.875 -0.5625 2.875 -2 6 C-5.55312757 7.57916781 -7.70511249 8.46483141 -11.4375 7.125 C-11.953125 6.75375 -12.46875 6.3825 -13 6 C-12.34 5.34 -11.68 4.68 -11 4 C-10.67 3.34 -10.34 2.68 -10 2 C-9.34 2.33 -8.68 2.66 -8 3 C-8 2.34 -8 1.68 -8 1 C-5.29120665 -0.35439668 -2.99066732 -0.06501451 0 0 Z " fill="#DAC840" transform="translate(172,143)"/>
<path xmlns="http://www.w3.org/2000/svg" d="M0 0 C0.99 0.33 1.98 0.66 3 1 C3.33 2.65 3.66 4.3 4 6 C2.35 5.67 0.7 5.34 -1 5 C-1.99 6.485 -1.99 6.485 -3 8 C-3.99 8 -4.98 8 -6 8 C-6.33 9.98 -6.66 11.96 -7 14 C-7.33 14 -7.66 14 -8 14 C-8 10.37 -8 6.74 -8 3 C-6.865625 2.690625 -5.73125 2.38125 -4.5625 2.0625 C-1.21224901 1.37075469 -1.21224901 1.37075469 0 0 Z " fill="#BB7247" transform="translate(70,54)"/>
<path xmlns="http://www.w3.org/2000/svg" d="M0 0 C0.33 0.66 0.66 1.32 1 2 C0.01 2.495 0.01 2.495 -1 3 C-1 3.66 -1 4.32 -1 5 C-1.66 5 -2.32 5 -3 5 C-3 5.66 -3 6.32 -3 7 C-4.98 7.33 -6.96 7.66 -9 8 C-8.938125 8.763125 -8.87625 9.52625 -8.8125 10.3125 C-9.03403312 13.48780806 -9.71775032 13.95735659 -12 16 C-11.80723413 11.5760232 -11.54412186 7.9836049 -9.375 4.0625 C-6.41938202 1.49577912 -3.79431697 0.80264397 0 0 Z " fill="#D0CB45" transform="translate(161,48)"/>
<path xmlns="http://www.w3.org/2000/svg" d="M0 0 C1.80078125 0.1328125 1.80078125 0.1328125 4 1 C5.66796875 3.6171875 5.66796875 3.6171875 7.1875 6.875 C7.95126953 8.47988281 7.95126953 8.47988281 8.73046875 10.1171875 C10.94112306 15.1370733 11.08853593 18.59930799 11 24 C10.34 23.01 9.68 22.02 9 21 C8.484375 20.29875 7.96875 19.5975 7.4375 18.875 C5.75208586 15.50417173 5.60595125 12.79457765 5.31640625 9.0859375 C4.91223405 6.42139483 3.80363326 4.96047093 2 3 C2 2.34 2 1.68 2 1 C1.34 0.67 0.68 0.34 0 0 Z " fill="#DA8448" transform="translate(77,48)"/>
<path xmlns="http://www.w3.org/2000/svg" d="M0 0 C1.39846371 3.8343634 0.62855489 6.8099895 -0.21484375 10.734375 C-0.34943497 11.37240051 -0.48402618 12.01042603 -0.62269592 12.66778564 C-1.05273986 14.69704723 -1.49492585 16.72343832 -1.9375 18.75 C-2.23192567 20.1287344 -2.52555457 21.50763921 -2.81835938 22.88671875 C-3.53774432 26.25957276 -4.2652491 29.63046591 -5 33 C-5.33 33 -5.66 33 -6 33 C-5.91280537 29.93616098 -5.80589603 26.87515949 -5.6875 23.8125 C-5.66494141 22.94818359 -5.64238281 22.08386719 -5.61914062 21.19335938 C-5.40967105 16.22321769 -4.91754426 13.16792037 -2 9 C-1.23694738 6.57904795 -1.23694738 6.57904795 -0.8125 4.1875 C-0.65394531 3.39730469 -0.49539062 2.60710937 -0.33203125 1.79296875 C-0.22246094 1.20128906 -0.11289063 0.60960938 0 0 Z " fill="#6D99C2" transform="translate(128,114)"/>
<path xmlns="http://www.w3.org/2000/svg" d="M0 0 C0.33 0 0.66 0 1 0 C1.70059106 4.08119969 2.3831959 8.1652077 3.0625 12.25 C3.26166016 13.40886719 3.46082031 14.56773438 3.66601562 15.76171875 C3.84970703 16.87675781 4.03339844 17.99179688 4.22265625 19.140625 C4.39547119 20.16704102 4.56828613 21.19345703 4.74633789 22.25097656 C4.98622385 24.85070308 4.82316264 26.54846267 4 29 C-1.32235994 20.43794271 -0.15290059 9.7346711 0 0 Z " fill="#DB955C" transform="translate(88,64)"/>
<path xmlns="http://www.w3.org/2000/svg" d="M0 0 C2.57589144 3.86383716 3.44948344 7.66897213 4.625 12.125 C4.85445312 12.94226563 5.08390625 13.75953125 5.3203125 14.6015625 C6.81543977 20.22608888 7.22239317 25.18266292 7 31 C5.43344388 27.9863506 4.51745773 25.34485928 3.875 22 C3.70742187 21.154375 3.53984375 20.30875 3.3671875 19.4375 C3 17 3 17 3 13 C2.34 13 1.68 13 1 13 C0.67 8.71 0.34 4.42 0 0 Z " fill="#F4E9A1" transform="translate(172,55)"/>
<path xmlns="http://www.w3.org/2000/svg" d="M0 0 C0.33 0.99 0.66 1.98 1 3 C-1.10889262 6.82724957 -2.79609368 9.49860488 -7 11 C-6.01 13.31 -5.02 15.62 -4 18 C-5.9375 17.25 -5.9375 17.25 -8 16 C-8.3721042 14.67696283 -8.70630173 13.34262065 -9 12 C-9.99 11.34 -10.98 10.68 -12 10 C-11.67 9.34 -11.34 8.68 -11 8 C-10.34 8 -9.68 8 -9 8 C-8.67 7.34 -8.34 6.68 -8 6 C-7.67 6.66 -7.34 7.32 -7 8 C-6.319375 7.2575 -6.319375 7.2575 -5.625 6.5 C-4 5 -4 5 -2 5 C-1.34 3.35 -0.68 1.7 0 0 Z " fill="#385680" transform="translate(87,155)"/>
<path xmlns="http://www.w3.org/2000/svg" d="M0 0 C0.33 0.66 0.66 1.32 1 2 C0.22265625 4.1640625 0.22265625 4.1640625 -0.9375 6.625 C-1.31777344 7.44226562 -1.69804688 8.25953125 -2.08984375 9.1015625 C-2.39019531 9.72804688 -2.69054687 10.35453125 -3 11 C-3.66 11 -4.32 11 -5 11 C-5.268125 11.928125 -5.53625 12.85625 -5.8125 13.8125 C-6.91148371 16.76240366 -7.62418561 18.05615186 -10 20 C-10.33 19.34 -10.66 18.68 -11 18 C-8.33576747 11.30937093 -4.94577571 5.23670369 0 0 Z " fill="#688EA9" transform="translate(124,34)"/>
<path xmlns="http://www.w3.org/2000/svg" d="M0 0 C1 2 1 2 0.1875 4.9375 C-1 8 -1 8 -3 11 C-4.32 11 -5.64 11 -7 11 C-7.33 9.02 -7.66 7.04 -8 5 C-7.34 5 -6.68 5 -6 5 C-6 4.34 -6 3.68 -6 3 C-4.68 3 -3.36 3 -2 3 C-1.34 2.01 -0.68 1.02 0 0 Z " fill="#D06C1E" transform="translate(85,137)"/>
<path xmlns="http://www.w3.org/2000/svg" d="M0 0 C1.03125 -0.01417969 2.0625 -0.02835938 3.125 -0.04296875 C5.96545203 0.18473053 7.59107948 0.72245939 10 2.1875 C6.86276108 3.23324631 4.71961247 3.25742517 1.4375 3.1875 C-2.43123651 3.00383753 -2.43123651 3.00383753 -6 4.1875 C-8.6723621 4.32165472 -11.32250488 4.23068541 -14 4.1875 C-9.42163318 0.42669868 -5.85635221 0.0366022 0 0 Z " fill="#5D8AAA" transform="translate(58,23.8125)"/>
<path xmlns="http://www.w3.org/2000/svg" d="M0 0 C0.66 0 1.32 0 2 0 C2.1953125 1.98567708 2.390625 3.97135417 2.5859375 5.95703125 C2.92665391 8.29988142 2.92665391 8.29988142 5 11 C4.67 11.99 4.34 12.98 4 14 C3.67 13.67 3.34 13.34 3 13 C2.34 13.66 1.68 14.32 1 15 C1 13.68 1 12.36 1 11 C0.34 11 -0.32 11 -1 11 C-1 10.01 -1 9.02 -1 8 C-1.66 8 -2.32 8 -3 8 C-3 6.35 -3 4.7 -3 3 C-2.67 4.32 -2.34 5.64 -2 7 C-1.34 7 -0.68 7 0 7 C0 4.69 0 2.38 0 0 Z " fill="#1260A0" transform="translate(12,160)"/>
<path xmlns="http://www.w3.org/2000/svg" d="M0 0 C0.33 0 0.66 0 1 0 C1.18451025 15.74487472 1.18451025 15.74487472 0 23 C-0.33 23 -0.66 23 -1 23 C-1.33 24.65 -1.66 26.3 -2 28 C-2.33 28 -2.66 28 -3 28 C-3.17743987 21.67131138 -2.50712088 15.74233484 -1.5 9.5 C-1.35691406 8.5821875 -1.21382813 7.664375 -1.06640625 6.71875 C-0.7163295 4.47825881 -0.3607651 2.23879053 0 0 Z " fill="#93B2C9" transform="translate(103,86)"/>
<path xmlns="http://www.w3.org/2000/svg" d="M0 0 C0.66 0 1.32 0 2 0 C3.28446919 2.56893838 3.32977144 4.76576337 3.5625 7.625 C3.64628906 8.62789062 3.73007813 9.63078125 3.81640625 10.6640625 C3.87699219 11.43492187 3.93757812 12.20578125 4 13 C4.66 13 5.32 13 6 13 C6 13.99 6 14.98 6 16 C5.34 16 4.68 16 4 16 C4 16.66 4 17.32 4 18 C3.34 18 2.68 18 2 18 C1.90912109 17.04287109 1.90912109 17.04287109 1.81640625 16.06640625 C1.73261719 15.24011719 1.64882812 14.41382813 1.5625 13.5625 C1.48128906 12.73878906 1.40007812 11.91507813 1.31640625 11.06640625 C1.21069185 9.01337975 1.21069185 9.01337975 0 8 C-0.14115161 5.32941149 -0.04247107 2.67567762 0 0 Z " fill="#EFD23A" transform="translate(160,128)"/>
<path xmlns="http://www.w3.org/2000/svg" d="M0 0 C0.33 0 0.66 0 1 0 C2.44796872 8.73952546 3.29211698 17.13911833 3 26 C2.34 26 1.68 26 1 26 C0.07446257 22.86149936 -0.11664647 20.06319222 -0.09765625 16.796875 C-0.09443359 15.8171875 -0.09121094 14.8375 -0.08789062 13.828125 C-0.07951172 12.81234375 -0.07113281 11.7965625 -0.0625 10.75 C-0.05798828 9.71875 -0.05347656 8.6875 -0.04882812 7.625 C-0.03706088 5.08327427 -0.02062011 2.54166681 0 0 Z " fill="#EDC92C" transform="translate(154,74)"/>
<path xmlns="http://www.w3.org/2000/svg" d="M0 0 C0.33 0 0.66 0 1 0 C0.93965068 2.22990727 0.8507725 4.4590536 0.75 6.6875 C0.68039063 8.54955078 0.68039063 8.54955078 0.609375 10.44921875 C-0.07529807 14.43875608 -1.13769392 16.18611639 -4 19 C-4.66 19 -5.32 19 -6 19 C-6 18.34 -6 17.68 -6 17 C-5.34 17 -4.68 17 -4 17 C-4.04125 15.96875 -4.0825 14.9375 -4.125 13.875 C-4.00424851 10.13170373 -3.35127982 7.46265453 -2 4 C-1.34 4 -0.68 4 0 4 C0 2.68 0 1.36 0 0 Z " fill="#216393" transform="translate(25,57)"/>
<path xmlns="http://www.w3.org/2000/svg" d="M0 0 C1.1700097 3.91736581 0.69584017 6.97959015 0 11 C-0.66 11 -1.32 11 -2 11 C-2 11.66 -2 12.32 -2 13 C-1.34 13 -0.68 13 0 13 C-0.66 14.32 -1.32 15.64 -2 17 C-2.66 17 -3.32 17 -4 17 C-3.67 18.98 -3.34 20.96 -3 23 C-3.99 23.33 -4.98 23.66 -6 24 C-5.43189471 18.20140805 -4.26320265 13.02313406 -2.4375 7.5 C-2.08655273 6.40945312 -2.08655273 6.40945312 -1.72851562 5.296875 C-1.15867219 3.52919739 -0.58024596 1.76429031 0 0 Z " fill="#8AAEC8" transform="translate(21,63)"/>
<path xmlns="http://www.w3.org/2000/svg" d="M0 0 C0.33 0.66 0.66 1.32 1 2 C2.98 2 4.96 2 7 2 C7.33 2.99 7.66 3.98 8 5 C7.43410156 5.18175781 6.86820313 5.36351562 6.28515625 5.55078125 C5.18494141 5.92783203 5.18494141 5.92783203 4.0625 6.3125 C2.96615234 6.67794922 2.96615234 6.67794922 1.84765625 7.05078125 C-0.35932024 7.91240441 -0.35932024 7.91240441 -1 11 C-1.99 11 -2.98 11 -4 11 C-4 11.66 -4 12.32 -4 13 C-4.66 13 -5.32 13 -6 13 C-6 12.01 -6 11.02 -6 10 C-4.7934375 9.1028125 -4.7934375 9.1028125 -3.5625 8.1875 C-0.71154069 6.18226129 -0.71154069 6.18226129 -0.1875 2.75 C-0.125625 1.8425 -0.06375 0.935 0 0 Z " fill="#1D64A4" transform="translate(153,31)"/>
<path xmlns="http://www.w3.org/2000/svg" d="M0 0 C0.99 0.66 1.98 1.32 3 2 C0.25 8.875 0.25 8.875 -2 10 C-3.05352843 12.30965848 -4.05719096 14.6429774 -5 17 C-6.61949011 14.42786866 -7.04408751 13.32330841 -6.625 10.25 C-6.41875 9.5075 -6.2125 8.765 -6 8 C-5.34 8.33 -4.68 8.66 -4 9 C-2.10134397 6.02819057 -0.64544429 3.48539917 0 0 Z " fill="#2766B6" transform="translate(92,152)"/>
<path xmlns="http://www.w3.org/2000/svg" d="M0 0 C0.5534764 2.07553648 1 3.84365964 1 6 C1.66 6.33 2.32 6.66 3 7 C2.1875 8.9375 2.1875 8.9375 1 11 C0.01 11.33 -0.98 11.66 -2 12 C-2.33 11.67 -2.66 11.34 -3 11 C-3.66 11.66 -4.32 12.32 -5 13 C-5.33 11.68 -5.66 10.36 -6 9 C-5.34 9 -4.68 9 -4 9 C-4 8.01 -4 7.02 -4 6 C-3.01 6 -2.02 6 -1 6 C-1.66 5.34 -2.32 4.68 -3 4 C-2.67 3.34 -2.34 2.68 -2 2 C-1.34 2 -0.68 2 0 2 C0 1.34 0 0.68 0 0 Z " fill="#165E9C" transform="translate(179,145)"/>
<path xmlns="http://www.w3.org/2000/svg" d="M0 0 C1.98 1.65 3.96 3.3 6 5 C5.67 6.32 5.34 7.64 5 9 C3.6696875 9.185625 3.6696875 9.185625 2.3125 9.375 C-0.70387502 9.94412736 -3.20326054 10.76614436 -6 12 C-4.60746468 8.51866169 -3.36823784 7.52113967 0 6 C1.24546405 3.50907189 0.7767578 2.58919267 0 0 Z " fill="#3E6B94" transform="translate(158,29)"/>
<path xmlns="http://www.w3.org/2000/svg" d="M0 0 C3.54079878 2.12447927 4.14099802 4.69479444 5.5 8.5 C5.83 9.16 6.16 9.82 6.5 10.5 C5.51 10.5 4.52 10.5 3.5 10.5 C3.5 9.84 3.5 9.18 3.5 8.5 C2.84 8.5 2.18 8.5 1.5 8.5 C1.5 7.84 1.5 7.18 1.5 6.5 C0.84 6.5 0.18 6.5 -0.5 6.5 C-0.83 5.84 -1.16 5.18 -1.5 4.5 C-2.49 4.17 -3.48 3.84 -4.5 3.5 C-4.83 2.51 -5.16 1.52 -5.5 0.5 C-2.5 -0.5 -2.5 -0.5 0 0 Z " fill="#E2D555" transform="translate(164.5,49.5)"/>
<path xmlns="http://www.w3.org/2000/svg" d="M0 0 C2.70195624 2.46700352 3.90789532 4.30864109 4.11352539 8.0847168 C4.10828857 8.86500244 4.10305176 9.64528809 4.09765625 10.44921875 C4.09282227 11.72055664 4.09282227 11.72055664 4.08789062 13.01757812 C4.07951172 13.89865234 4.07113281 14.77972656 4.0625 15.6875 C4.05798828 16.58017578 4.05347656 17.47285156 4.04882812 18.39257812 C4.03704983 20.59511987 4.02060164 22.79752599 4 25 C3.67 25 3.34 25 3 25 C2.91697632 24.13048706 2.91697632 24.13048706 2.83227539 23.2434082 C2.57832383 20.59951088 2.32044806 17.95601028 2.0625 15.3125 C1.97548828 14.40048828 1.88847656 13.48847656 1.79882812 12.54882812 C1.71181641 11.66259766 1.62480469 10.77636719 1.53515625 9.86328125 C1.456604 9.05157471 1.37805176 8.23986816 1.29711914 7.40356445 C0.98788366 4.90198406 0.52365768 2.46483559 0 0 Z " fill="#D5742A" transform="translate(89,87)"/>
<path xmlns="http://www.w3.org/2000/svg" d="M0 0 C-0.625 1.875 -0.625 1.875 -2 4 C-4.875 5.1875 -4.875 5.1875 -8 6 C-9.175625 6.309375 -9.175625 6.309375 -10.375 6.625 C-10.91125 6.74875 -11.4475 6.8725 -12 7 C-11.64393309 4.41851492 -11.16671807 3.17954253 -9.375 1.25 C-6.16865877 -0.43754802 -3.56651486 -0.20576047 0 0 Z " fill="#B8CBD8" transform="translate(75,38)"/>
<path xmlns="http://www.w3.org/2000/svg" d="M0 0 C2.21637574 3.32456361 3.68814818 6.75791424 5.1875 10.4375 C5.47302734 11.10587891 5.75855469 11.77425781 6.05273438 12.46289062 C8.075048 17.42764597 8.075048 17.42764597 7.67578125 20.47265625 C7.45277344 20.97667969 7.22976562 21.48070313 7 22 C6.38511719 20.55367187 6.38511719 20.55367187 5.7578125 19.078125 C5.21360647 17.80205569 4.66933203 16.52601556 4.125 15.25 C3.85558594 14.61578125 3.58617188 13.9815625 3.30859375 13.328125 C2.20225944 10.73768369 1.09509589 8.18043835 -0.21875 5.6875 C-1.2494285 3.46123445 -0.8063984 2.25791552 0 0 Z " fill="#EFD4C0" transform="translate(80,42)"/>
<path xmlns="http://www.w3.org/2000/svg" d="M0 0 C3.23150461 0.96071759 4.75851173 1.69411485 6.875 4.375 C8 7 8 7 7.6875 9.3125 C7.460625 9.869375 7.23375 10.42625 7 11 C5.68 10.67 4.36 10.34 3 10 C3.99 10 4.98 10 6 10 C6 9.01 6 8.02 6 7 C5.34 7 4.68 7 4 7 C3.67 7.66 3.34 8.32 3 9 C2.01 6.03 1.02 3.06 0 0 Z " fill="#3B638C" transform="translate(68,27)"/>
<path xmlns="http://www.w3.org/2000/svg" d="M0 0 C2.1875 -0.3125 2.1875 -0.3125 5 0 C7.8125 2.5 7.8125 2.5 10 5 C4.96488101 6.0070238 1.76052962 5.97387813 -3 4 C-2.01 3.34 -1.02 2.68 0 2 C0 1.34 0 0.68 0 0 Z " fill="#447CAC" transform="translate(175,177)"/>
<path xmlns="http://www.w3.org/2000/svg" d="M0 0 C4.95 0.99 4.95 0.99 10 2 C9.01 2.495 9.01 2.495 8 3 C8 3.66 8 4.32 8 5 C7.401875 5.103125 6.80375 5.20625 6.1875 5.3125 C3.71756736 6.08876455 2.67748765 7.07088921 1 9 C-0.4783226 6.04335481 -0.06032783 3.25770263 0 0 Z " fill="#5C7487" transform="translate(158,155)"/>
<path xmlns="http://www.w3.org/2000/svg" d="M0 0 C0.33 0 0.66 0 1 0 C1.67090715 7.24579719 -0.41874318 11.75838097 -4 18 C-5.72251754 13.9154674 -4.07280563 10.63026304 -2.5625 6.75 C-2.31951172 6.1003125 -2.07652344 5.450625 -1.82617188 4.78125 C-1.22714006 3.18383183 -0.61485679 1.59139406 0 0 Z " fill="#83A4BC" transform="translate(112,54)"/>
<path xmlns="http://www.w3.org/2000/svg" d="M0 0 C0 1.98 0 3.96 0 6 C-2.31 5.67 -4.62 5.34 -7 5 C-7.33 3.68 -7.66 2.36 -8 1 C-5.29120665 -0.35439668 -2.99066732 -0.06501451 0 0 Z " fill="#1866A6" transform="translate(148,26)"/>
<path xmlns="http://www.w3.org/2000/svg" d="M0 0 C0.33 0 0.66 0 1 0 C1.33 1.98 1.66 3.96 2 6 C2.66 5.67 3.32 5.34 4 5 C2.74464015 8.76607955 1.47116415 9.26441793 -2 11 C-2.99 11 -3.98 11 -5 11 C-4.38722388 8.03824877 -3.74627478 6.61941217 -2 4 C-1.34 4 -0.68 4 0 4 C-0.33 3.01 -0.66 2.02 -1 1 C-0.67 0.67 -0.34 0.34 0 0 Z " fill="#D2C7C1" transform="translate(85,145)"/>
<path xmlns="http://www.w3.org/2000/svg" d="M0 0 C2.475 0.99 2.475 0.99 5 2 C5.33 1.34 5.66 0.68 6 0 C6.69699552 1.45381897 7.38233866 2.91322953 8.0625 4.375 C8.44535156 5.18710937 8.82820312 5.99921875 9.22265625 6.8359375 C9.47917969 7.55007812 9.73570312 8.26421875 10 9 C9.67 9.66 9.34 10.32 9 11 C8.01 10.34 7.02 9.68 6 9 C5.8125 6.375 5.8125 6.375 6 4 C5.34 4 4.68 4 4 4 C3.67 4.66 3.34 5.32 3 6 C2.566875 5.0409375 2.566875 5.0409375 2.125 4.0625 C1.17176549 1.84793921 1.17176549 1.84793921 -1 1 C-0.67 0.67 -0.34 0.34 0 0 Z " fill="#ECE6AA" transform="translate(162,44)"/>
<path xmlns="http://www.w3.org/2000/svg" d="M0 0 C1.75 0.0625 1.75 0.0625 4 1 C5.59501537 3.24164322 6.74543018 5.53566643 8 8 C8.66 8 9.32 8 10 8 C10 8.99 10 9.98 10 11 C7.69 11.33 5.38 11.66 3 12 C3 8.7 3 5.4 3 2 C2.01 2 1.02 2 0 2 C0 1.34 0 0.68 0 0 Z " fill="#245B88" transform="translate(64,26)"/>
<path xmlns="http://www.w3.org/2000/svg" d="M0 0 C1.1540694 3.4622082 0.79627697 4.52684224 -0.25 7.9375 C-0.62898438 9.21947266 -0.62898438 9.21947266 -1.015625 10.52734375 C-2.02795457 13.07021923 -3.26402702 14.89830237 -5 17 C-4.69343615 10.37822074 -3.25711277 5.77874846 0 0 Z " fill="#6091B8" transform="translate(121,148)"/>
<path xmlns="http://www.w3.org/2000/svg" d="M0 0 C0.87823436 2.46129375 1.09761018 3.6936874 0.29296875 6.21875 C-0.07183594 6.9715625 -0.43664062 7.724375 -0.8125 8.5 C-1.16957031 9.2528125 -1.52664062 10.005625 -1.89453125 10.78125 C-2.25933594 11.5134375 -2.62414062 12.245625 -3 13 C-3.31324219 13.7321875 -3.62648437 14.464375 -3.94921875 15.21875 C-5 17 -5 17 -8 18 C-6.36977492 12.48231511 -6.36977492 12.48231511 -4.5625 10.125 C-2.26690983 7.00299737 -1.27816342 3.65189548 0 0 Z " fill="#F5EEC0" transform="translate(176,135)"/>
<path xmlns="http://www.w3.org/2000/svg" d="M0 0 C0.33 0 0.66 0 1 0 C1 1.65 1 3.3 1 5 C1.66 5 2.32 5 3 5 C3.33 11.27 3.66 17.54 4 24 C3.67 24 3.34 24 3 24 C2.49236135 21.31374546 1.99372803 18.62631617 1.5 15.9375 C1.35691406 15.18533203 1.21382813 14.43316406 1.06640625 13.65820312 C0.223569 9.02259825 -0.15015262 4.7110385 0 0 Z " fill="#E9CDB1" transform="translate(67,129)"/>
<path xmlns="http://www.w3.org/2000/svg" d="M0 0 C1.09141134 3.25958421 0.9119066 5.00172169 -0.3125 8.1875 C-1.95699547 12.72872144 -3.04953902 17.27005887 -4 22 C-6 19 -6 19 -5.64453125 16.58203125 C-5.23267578 15.21111328 -5.23267578 15.21111328 -4.8125 13.8125 C-4.379375 12.3584375 -4.379375 12.3584375 -3.9375 10.875 C-2.73808694 7.19679994 -1.42512805 3.59675176 0 0 Z " fill="#467EB0" transform="translate(47,88)"/>
<path xmlns="http://www.w3.org/2000/svg" d="M0 0 C2.91180862 4.36771293 3.12438648 7.55153591 3.0625 12.75 C3.05347656 13.73484375 3.04445313 14.7196875 3.03515625 15.734375 C3.02355469 16.48203125 3.01195313 17.2296875 3 18 C-0.07629933 14.92370067 -0.45536577 11.23297993 -1 7 C-0.88864086 4.55009881 -0.5127946 2.41013461 0 0 Z " fill="#E17117" transform="translate(86,69)"/>
<path xmlns="http://www.w3.org/2000/svg" d="M0 0 C0.99 0.66 1.98 1.32 3 2 C-0.39377086 3.04423719 -3.46829831 3 -7 3 C-8.051875 3.309375 -8.051875 3.309375 -9.125 3.625 C-11.65172384 4.13034477 -12.84954734 3.30563197 -15 2 C-10.04487015 -0.03287378 -5.30443635 -0.6870508 0 0 Z " fill="#6890B1" transform="translate(149,24)"/>
<path xmlns="http://www.w3.org/2000/svg" d="M0 0 C0.33 0 0.66 0 1 0 C1.06058594 0.62648438 1.12117187 1.25296875 1.18359375 1.8984375 C1.26738281 2.71570313 1.35117188 3.53296875 1.4375 4.375 C1.51871094 5.18710938 1.59992188 5.99921875 1.68359375 6.8359375 C1.89090114 9.04272805 1.89090114 9.04272805 3 11 C3.07065617 13.04055005 3.08421976 15.08334257 3.0625 17.125 C3.05347656 18.22070312 3.04445312 19.31640625 3.03515625 20.4453125 C3.02355469 21.28835937 3.01195312 22.13140625 3 23 C-1.34057339 16.48913992 -0.11335361 7.55690715 0 0 Z " fill="#DFC260" transform="translate(152,90)"/>
<path xmlns="http://www.w3.org/2000/svg" d="M0 0 C1.98 0.99 1.98 0.99 4 2 C4 2.99 4 3.98 4 5 C4.99 5.66 5.98 6.32 7 7 C8.1875 10.125 8.1875 10.125 9 13 C5.6227555 11.60724746 4.12929695 10.17726069 2.25 7.0625 C1.82203125 6.37285156 1.3940625 5.68320313 0.953125 4.97265625 C0 3 0 3 0 0 Z " fill="#8693A8" transform="translate(72,160)"/>
<path xmlns="http://www.w3.org/2000/svg" d="M0 0 C1.32 0.33 2.64 0.66 4 1 C2 6 0 11 -2 16 C-2.97591583 12.61682513 -2.85856655 10.4342662 -2 7 C-1.34 7 -0.68 7 0 7 C0 4.69 0 2.38 0 0 Z " fill="#5F89AF" transform="translate(58,44)"/>
<path xmlns="http://www.w3.org/2000/svg" d="M0 0 C0.88336837 2.4667645 1.1312406 3.63859372 0.22265625 6.140625 C-0.16019531 6.83671875 -0.54304688 7.5328125 -0.9375 8.25 C-1.31777344 8.95640625 -1.69804688 9.6628125 -2.08984375 10.390625 C-2.39019531 10.92171875 -2.69054688 11.4528125 -3 12 C-4.32 12 -5.64 12 -7 12 C-5.44298069 7.32894208 -2.91552627 3.91294315 0 0 Z " fill="#729AB6" transform="translate(37,33)"/>
<path xmlns="http://www.w3.org/2000/svg" d="M0 0 C0.99 0.495 0.99 0.495 2 1 C3.54023996 1.06950541 5.08334988 1.08452357 6.625 1.0625 C7.44226563 1.05347656 8.25953125 1.04445312 9.1015625 1.03515625 C9.72804688 1.02355469 10.35453125 1.01195312 11 1 C10.67 2.32 10.34 3.64 10 5 C6.7 5 3.4 5 0 5 C0 3.35 0 1.7 0 0 Z " fill="#746468" transform="translate(72,155)"/>
<path xmlns="http://www.w3.org/2000/svg" d="M0 0 C0.66 0 1.32 0 2 0 C2 0.99 2 1.98 2 3 C2.66 3 3.32 3 4 3 C5.06775224 4.96466413 6.06553465 6.96855359 7 9 C6.67 9.66 6.34 10.32 6 11 C4.68 10.34 3.36 9.68 2 9 C2 8.34 2 7.68 2 7 C1.34 6.67 0.68 6.34 0 6 C0 4.02 0 2.04 0 0 Z " fill="#BD763F" transform="translate(70,139)"/>
<path xmlns="http://www.w3.org/2000/svg" d="M0 0 C2.97 0 5.94 0 9 0 C9.33 1.32 9.66 2.64 10 4 C8.02 4.99 8.02 4.99 6 6 C5.34 5.34 4.68 4.68 4 4 C4.66 4 5.32 4 6 4 C6 3.34 6 2.68 6 2 C3.525 3.485 3.525 3.485 1 5 C1.33 3.68 1.66 2.36 2 1 C1.34 0.67 0.68 0.34 0 0 Z " fill="#176AA6" transform="translate(54,26)"/>
<path xmlns="http://www.w3.org/2000/svg" d="M0 0 C0.33 0 0.66 0 1 0 C1.02689216 1.47906892 1.04634621 2.95827483 1.0625 4.4375 C1.07410156 5.26121094 1.08570313 6.08492188 1.09765625 6.93359375 C1 9 1 9 0 10 C-0.07179964 11.51928038 -0.08392007 13.04167482 -0.0625 14.5625 C-0.05347656 15.38878906 -0.04445313 16.21507813 -0.03515625 17.06640625 C-0.02355469 17.70449219 -0.01195312 18.34257813 0 19 C-0.66 19 -1.32 19 -2 19 C-2.33 19.66 -2.66 20.32 -3 21 C-2.53752467 13.80729161 -1.74922933 6.9969173 0 0 Z " fill="#9EB9D1" transform="translate(14,87)"/>
<path xmlns="http://www.w3.org/2000/svg" d="M0 0 C1.31223496 3.93670488 0.24296256 6.12488144 -1 10 C-1.66 10 -2.32 10 -3 10 C-3.33 11.32 -3.66 12.64 -4 14 C-5.15941038 10.52176885 -4.70820884 8.54104422 -4 5 C-3.34 5 -2.68 5 -2 5 C-1.34 3.35 -0.68 1.7 0 0 Z " fill="#F0E07B" transform="translate(179,125)"/>
<path xmlns="http://www.w3.org/2000/svg" d="M0 0 C2 2 2 2 2.5 5.0625 C2.665 6.031875 2.83 7.00125 3 8 C3.66 8.33 4.32 8.66 5 9 C4.67 10.32 4.34 11.64 4 13 C1 11 1 11 0 8 C-0.12781786 5.32605036 -0.04391871 2.67904143 0 0 Z " fill="#C6B862" transform="translate(157,136)"/>
<path xmlns="http://www.w3.org/2000/svg" d="M0 0 C0.66 0.33 1.32 0.66 2 1 C0.85865673 3.00256574 -0.28818633 5.00199797 -1.4375 7 C-2.39462891 8.670625 -2.39462891 8.670625 -3.37109375 10.375 C-3.90863281 11.24125 -4.44617188 12.1075 -5 13 C-5.33 13 -5.66 13 -6 13 C-6 10.69 -6 8.38 -6 6 C-5.01 5.67 -4.02 5.34 -3 5 C-2.67 4.01 -2.34 3.02 -2 2 C-1.34 2 -0.68 2 0 2 C0 1.34 0 0.68 0 0 Z " fill="#4977A5" transform="translate(149,42)"/>
<path xmlns="http://www.w3.org/2000/svg" d="M0 0 C2 2 2 2 2 5 C-0.88211302 5.96070434 -2.69850044 6.10581883 -5.6875 6.0625 C-6.89986328 6.04896484 -6.89986328 6.04896484 -8.13671875 6.03515625 C-9.05904297 6.01775391 -9.05904297 6.01775391 -10 6 C-7.94766315 3.7522025 -6.99332739 2.9977758 -4 2 C-3.01 2.33 -2.02 2.66 -1 3 C-0.67 2.01 -0.34 1.02 0 0 Z " fill="#A1B8BD" transform="translate(164,35)"/>
<path xmlns="http://www.w3.org/2000/svg" d="M0 0 C0.99 0.66 1.98 1.32 3 2 C-1.83451572 5.94394703 -3.87215048 7.12901968 -10.125 7.0625 C-11.22070312 7.05347656 -12.31640625 7.04445312 -13.4453125 7.03515625 C-14.70988281 7.01775391 -14.70988281 7.01775391 -16 7 C-16 6.67 -16 6.34 -16 6 C-9.565 5.505 -9.565 5.505 -3 5 C-3 4.34 -3 3.68 -3 3 C-1.5 1.375 -1.5 1.375 0 0 Z " fill="#6F94B8" transform="translate(106,173)"/>
<path xmlns="http://www.w3.org/2000/svg" d="M0 0 C1.15507777 3.93421227 0.83585767 6.97268577 0 11 C-0.99 11.495 -0.99 11.495 -2 12 C-2.65555119 14.52733235 -2.65555119 14.52733235 -3 17 C-3.33 17 -3.66 17 -4 17 C-4.56131481 10.54487966 -2.63463787 5.84560277 0 0 Z " fill="#1B68A6" transform="translate(42,110)"/>
<path xmlns="http://www.w3.org/2000/svg" d="M0 0 C1.32 1.32 2.64 2.64 4 4 C3.67 4.99 3.34 5.98 3 7 C2.34 6.34 1.68 5.68 1 5 C-1.10820797 5.3185177 -1.10820797 5.3185177 -3 6 C-3 4.35 -3 2.7 -3 1 C-2.01 0.67 -1.02 0.34 0 0 Z " fill="#C86C33" transform="translate(79,51)"/>
<path xmlns="http://www.w3.org/2000/svg" d="M0 0 C2.56687367 3.8503105 1.83288724 5.58569763 1 10 C0.34 10 -0.32 10 -1 10 C-1 10.66 -1 11.32 -1 12 C-1.99 12.33 -2.98 12.66 -4 13 C-3.52140759 11.39566191 -3.04210442 9.79153584 -2.5625 8.1875 C-2.29566406 7.29417969 -2.02882813 6.40085938 -1.75390625 5.48046875 C-1.19612127 3.64526945 -0.60655425 1.81966274 0 0 Z " fill="#849BB3" transform="translate(96,131)"/>
<path xmlns="http://www.w3.org/2000/svg" d="M0 0 C0.86625 0.3403125 0.86625 0.3403125 1.75 0.6875 C1.09 2.3375 0.43 3.9875 -0.25 5.6875 C-0.58 4.6975 -0.91 3.7075 -1.25 2.6875 C-1.91 2.6875 -2.57 2.6875 -3.25 2.6875 C-3.58 4.0075 -3.91 5.3275 -4.25 6.6875 C-4.91 6.6875 -5.57 6.6875 -6.25 6.6875 C-6.25 2.6875 -6.25 2.6875 -4.5 0.875 C-2.25 -0.3125 -2.25 -0.3125 0 0 Z " fill="#DA6E18" transform="translate(77.25,125.3125)"/>
<path xmlns="http://www.w3.org/2000/svg" d="M0 0 C0.66 0 1.32 0 2 0 C1.64950425 3.24208567 1.43778819 4.61527704 -1.0625 6.8125 C-1.701875 7.204375 -2.34125 7.59625 -3 8 C-3.66 7.67 -4.32 7.34 -5 7 C-3.47793991 4.37098712 -2.15634036 2.15634036 0 0 Z " fill="#4D7DA0" transform="translate(42,28)"/>
<path xmlns="http://www.w3.org/2000/svg" d="M0 0 C0.33 0 0.66 0 1 0 C1 2.64 1 5.28 1 8 C0.01 8.495 0.01 8.495 -1 9 C-1.66 9.99 -2.32 10.98 -3 12 C-4.15837626 7.94568308 -3.83691257 5.78187881 -2 2 C-1.34 2 -0.68 2 0 2 C0 1.34 0 0.68 0 0 Z " fill="#2B5CA7" transform="translate(90,152)"/>
<path xmlns="http://www.w3.org/2000/svg" d="M0 0 C3.24732932 1.62366466 3.70155136 4.75387839 5 8 C4.34 8 3.68 8 3 8 C2.67 7.34 2.34 6.68 2 6 C0.02 6.99 0.02 6.99 -2 8 C-2 4.23312136 -1.76462683 3.08809695 0 0 Z " fill="#D86C1E" transform="translate(81,60)"/>
<path xmlns="http://www.w3.org/2000/svg" d="M0 0 C0.33 0.99 0.66 1.98 1 3 C1.66 3 2.32 3 3 3 C2.42655063 5.86724686 2.1385485 6.8614515 0 9 C-1.76462683 5.91190305 -2 4.76687864 -2 1 C-1.34 0.67 -0.68 0.34 0 0 Z " fill="#5E8AAE" transform="translate(10,168)"/>
<path xmlns="http://www.w3.org/2000/svg" d="M0 0 C1.125 1.6875 1.125 1.6875 2 4 C1.125 6.75 1.125 6.75 0 9 C-1.33333333 8.33333333 -2.66666667 7.66666667 -4 7 C-3.39816251 4.97954558 -2.72693904 2.97888961 -2 1 C-1.34 0.67 -0.68 0.34 0 0 Z " fill="#4D7CA2" transform="translate(181,140)"/>
<path xmlns="http://www.w3.org/2000/svg" d="M0 0 C0.66 0 1.32 0 2 0 C1.40895235 4.84659077 0.02055843 8.60748167 -2 13 C-3.18771723 9.57056481 -2.80226223 7.62215325 -1.5625 4.25 C-1.27503906 3.45078125 -0.98757812 2.6515625 -0.69140625 1.828125 C-0.46324219 1.22484375 -0.23507813 0.6215625 0 0 Z " fill="#DFAB7D" transform="translate(89,131)"/>
<path xmlns="http://www.w3.org/2000/svg" d="M0 0 C0.33 0 0.66 0 1 0 C1 4.62 1 9.24 1 14 C0.34 14 -0.32 14 -1 14 C-1.33 14.99 -1.66 15.98 -2 17 C-1.4618629 11.30948637 -0.8599867 5.65134116 0 0 Z " fill="#AABDCE" transform="translate(99,114)"/>
<path xmlns="http://www.w3.org/2000/svg" d="M0 0 C0.99 0.33 1.98 0.66 3 1 C2.67 2.32 2.34 3.64 2 5 C1.01 5 0.02 5 -1 5 C-3.18777466 6.9375006 -3.18777466 6.9375006 -5 9 C-4.5206753 4.68607774 -3.2542015 2.83430453 0 0 Z " fill="#1265A2" transform="translate(31,52)"/>
<path xmlns="http://www.w3.org/2000/svg" d="M0 0 C0.33 0 0.66 0 1 0 C1.33820166 1.5823006 1.67035939 3.16589375 2 4.75 C2.185625 5.63171875 2.37125 6.5134375 2.5625 7.421875 C3 10 3 10 3 14 C2.34 14 1.68 14 1 14 C-0.38226016 11.23547967 -0.09525387 8.9538637 -0.0625 5.875 C-0.05347656 4.77929688 -0.04445313 3.68359375 -0.03515625 2.5546875 C-0.02355469 1.71164063 -0.01195313 0.86859375 0 0 Z " fill="#EFBE97" transform="translate(88,64)"/>
<path xmlns="http://www.w3.org/2000/svg" d="M0 0 C0.99 0.33 1.98 0.66 3 1 C2.01 4.96 1.02 8.92 0 13 C-0.33 13 -0.66 13 -1 13 C-1.02686553 11.02090602 -1.04633375 9.04171029 -1.0625 7.0625 C-1.07410156 5.96035156 -1.08570313 4.85820313 -1.09765625 3.72265625 C-1 1 -1 1 0 0 Z " fill="#608CB2" transform="translate(52,62)"/>
<path xmlns="http://www.w3.org/2000/svg" d="M0 0 C0.99 0 1.98 0 3 0 C3 0.66 3 1.32 3 2 C0.15222057 4.61046448 -2.13066838 6.42676569 -6 7 C-6 5.68 -6 4.36 -6 3 C-4.02 2.67 -2.04 2.34 0 2 C0 1.34 0 0.68 0 0 Z " fill="#DED337" transform="translate(158,53)"/>
<path xmlns="http://www.w3.org/2000/svg" d="M0 0 C0.66 0 1.32 0 2 0 C2 3.3 2 6.6 2 10 C1.34 10 0.68 10 0 10 C-0.33 10.99 -0.66 11.98 -1 13 C-0.67 8.71 -0.34 4.42 0 0 Z " fill="#15609D" transform="translate(14,100)"/>
<path xmlns="http://www.w3.org/2000/svg" d="M0 0 C0.66 0.33 1.32 0.66 2 1 C1.360625 1.2475 0.72125 1.495 0.0625 1.75 C-2.18741541 2.81562433 -2.18741541 2.81562433 -2.75 5.125 C-2.8325 5.74375 -2.915 6.3625 -3 7 C-4.65 6.67 -6.3 6.34 -8 6 C-5.63404067 3.38499232 -3.13950774 1.61000397 0 0 Z " fill="#2C689C" transform="translate(66,38)"/>
<path xmlns="http://www.w3.org/2000/svg" d="M0 0 C1.32 0 2.64 0 4 0 C3.47535095 4.61691161 2.92509086 6.09987886 0 10 C0 6.7 0 3.4 0 0 Z " fill="#CBBCAF" transform="translate(71,150)"/>
<path xmlns="http://www.w3.org/2000/svg" d="M0 0 C0.98120464 3.05263664 0.98120464 4.94736336 0 8 C-1.32 8.33 -2.64 8.66 -4 9 C-4 8.01 -4 7.02 -4 6 C-3.01 6 -2.02 6 -1 6 C-1.66 5.34 -2.32 4.68 -3 4 C-2.67 3.34 -2.34 2.68 -2 2 C-1.34 2 -0.68 2 0 2 C0 1.34 0 0.68 0 0 Z " fill="#225782" transform="translate(179,145)"/>
<path xmlns="http://www.w3.org/2000/svg" d="M0 0 C0.66 0.33 1.32 0.66 2 1 C2 1.99 2 2.98 2 4 C4.47266765 3.65555119 4.47266765 3.65555119 7 3 C7.33 2.34 7.66 1.68 8 1 C8.66 1.33 9.32 1.66 10 2 C8 5 8 5 4.5625 5.875 C1 6 1 6 -0.9375 4.5625 C-1.4634375 3.7890625 -1.4634375 3.7890625 -2 3 C-1.34 2.67 -0.68 2.34 0 2 C0 1.34 0 0.68 0 0 Z " fill="#DACD78" transform="translate(161,145)"/>
<path xmlns="http://www.w3.org/2000/svg" d="M0 0 C0.66 0 1.32 0 2 0 C2 2.31 2 4.62 2 7 C0.68 7.33 -0.64 7.66 -2 8 C-1.125 1.125 -1.125 1.125 0 0 Z " fill="#2C5589" transform="translate(93,143)"/>
<path xmlns="http://www.w3.org/2000/svg" d="M0 0 C0.5775 0.66 1.155 1.32 1.75 2 C3.99653977 4.44290923 3.99653977 4.44290923 8 4 C8 4.99 8 5.98 8 7 C7.01 7 6.02 7 5 7 C4.67 7.66 4.34 8.32 4 9 C3.67 7.68 3.34 6.36 3 5 C2.34 5 1.68 5 1 5 C0.67 3.35 0.34 1.7 0 0 Z " fill="#E7CD24" transform="translate(163,136)"/>
<path xmlns="http://www.w3.org/2000/svg" d="M0 0 C1.28453152 2.56906305 0.82588515 3.61019524 0.1875 6.375 C-0.06966797 7.53128906 -0.06966797 7.53128906 -0.33203125 8.7109375 C-0.99513635 10.98333277 -1.87573013 12.92223543 -3 15 C-3 12.36 -3 9.72 -3 7 C-2.34 7 -1.68 7 -1 7 C-1.020625 6.030625 -1.04125 5.06125 -1.0625 4.0625 C-1 1 -1 1 0 0 Z " fill="#276AA0" transform="translate(48,79)"/>
<path xmlns="http://www.w3.org/2000/svg" d="M0 0 C0.33 0 0.66 0 1 0 C1.33 2.97 1.66 5.94 2 9 C1.01 9.33 0.02 9.66 -1 10 C-1.33 10.99 -1.66 11.98 -2 13 C-1.48041715 8.62065881 -0.94324258 4.31196609 0 0 Z " fill="#93B8D0" transform="translate(106,72)"/>
<path xmlns="http://www.w3.org/2000/svg" d="M0 0 C0.66 0.33 1.32 0.66 2 1 C1.67 1.66 1.34 2.32 1 3 C1.66 3.33 2.32 3.66 3 4 C3 5.32 3 6.64 3 8 C2.01 8 1.02 8 0 8 C-2 5 -2 5 -1.6875 2.875 C-1 1 -1 1 0 0 Z " fill="#AF7E6B" transform="translate(69,45)"/>
<path xmlns="http://www.w3.org/2000/svg" d="M0 0 C2.6875 -0.3125 2.6875 -0.3125 5 0 C5 0.66 5 1.32 5 2 C4.01 2.33 3.02 2.66 2 3 C1.01 4.485 1.01 4.485 0 6 C-0.99 5.67 -1.98 5.34 -3 5 C-1.8125 2.5 -1.8125 2.5 0 0 Z " fill="#1460A0" transform="translate(135,28)"/>
<path xmlns="http://www.w3.org/2000/svg" d="M0 0 C0.33 0.66 0.66 1.32 1 2 C-0.30406884 4.01920337 -1.63823419 6.01924973 -3 8 C-3.33 8 -3.66 8 -4 8 C-3.67 5.69 -3.34 3.38 -3 1 C-2.01 0.67 -1.02 0.34 0 0 Z " fill="#2C588B" transform="translate(169,157)"/>
<path xmlns="http://www.w3.org/2000/svg" d="M0 0 C0.66 0 1.32 0 2 0 C2.36923077 5.53846154 2.36923077 5.53846154 0.5 7.875 C-0.2425 8.431875 -0.2425 8.431875 -1 9 C-2.25541557 5.23375329 -1.37061958 3.62811066 0 0 Z " fill="#C4733C" transform="translate(64,62)"/>
<path xmlns="http://www.w3.org/2000/svg" d="M0 0 C0.66 0 1.32 0 2 0 C0.515 5.445 0.515 5.445 -1 11 C-1.66 10.34 -2.32 9.68 -3 9 C-2.6442194 5.62008426 -1.64284201 2.95711562 0 0 Z " fill="#CFD190" transform="translate(151,49)"/>
<path xmlns="http://www.w3.org/2000/svg" d="M0 0 C0.66 0.66 1.32 1.32 2 2 C1.625 5.125 1.625 5.125 1 8 C0.01 8 -0.98 8 -2 8 C-2.33 7.01 -2.66 6.02 -3 5 C-1.5625 2.3125 -1.5625 2.3125 0 0 Z " fill="#75A1BB" transform="translate(29,45)"/>
<path xmlns="http://www.w3.org/2000/svg" d="M0 0 C-0.33 0.66 -0.66 1.32 -1 2 C-2.98 2 -4.96 2 -7 2 C-7 1.01 -7 0.02 -7 -1 C-3.51418144 -2.2020064 -3.32007656 -2.21338437 0 0 Z " fill="#0F599B" transform="translate(28,178)"/>
<path xmlns="http://www.w3.org/2000/svg" d="M0 0 C0.33 0.99 0.66 1.98 1 3 C0.67 3.66 0.34 4.32 0 5 C-1.32 5 -2.64 5 -4 5 C-4.33 3.68 -4.66 2.36 -5 1 C-3 0 -3 0 0 0 Z " fill="#C76619" transform="translate(82,143)"/>
<path xmlns="http://www.w3.org/2000/svg" d="M0 0 C0.66 0.33 1.32 0.66 2 1 C2 3.31 2 5.62 2 8 C1.01 8 0.02 8 -1 8 C-0.67 5.36 -0.34 2.72 0 0 Z " fill="#EAD750" transform="translate(172,135)"/>
<path xmlns="http://www.w3.org/2000/svg" d="M0 0 C0.33 0 0.66 0 1 0 C1.36923077 5.41538462 1.36923077 5.41538462 -0.5 8.375 C-0.995 8.91125 -1.49 9.4475 -2 10 C-2.25 3.375 -2.25 3.375 0 0 Z " fill="#2F6192" transform="translate(109,69)"/>
<path xmlns="http://www.w3.org/2000/svg" d="M0 0 C0.66 0 1.32 0 2 0 C1.33035714 7.09821429 1.33035714 7.09821429 -2 10 C-1.85950482 8.52031676 -1.71245174 7.04125484 -1.5625 5.5625 C-1.48128906 4.73878906 -1.40007812 3.91507813 -1.31640625 3.06640625 C-1 1 -1 1 0 0 Z " fill="#D8CF56" transform="translate(151,54)"/>
<path xmlns="http://www.w3.org/2000/svg" d="M0 0 C1.859375 0.24609375 1.859375 0.24609375 4 1 C5.265625 2.84765625 5.265625 2.84765625 6.25 5.0625 C6.75273438 6.16271484 6.75273438 6.16271484 7.265625 7.28515625 C7.50796875 7.85105469 7.7503125 8.41695312 8 9 C7.01 9.495 7.01 9.495 6 10 C2 3.25 2 3.25 2 1 C1.34 0.67 0.68 0.34 0 0 Z " fill="#CF8E65" transform="translate(77,48)"/>
<path xmlns="http://www.w3.org/2000/svg" d="M0 0 C0.66 0 1.32 0 2 0 C1.34 2.97 0.68 5.94 0 9 C-0.33 7.68 -0.66 6.36 -1 5 C-1.66 4.67 -2.32 4.34 -3 4 C-1.625 2 -1.625 2 0 0 Z " fill="#D7EAE7" transform="translate(150,44)"/>
<path xmlns="http://www.w3.org/2000/svg" d="M0 0 C2.04119788 1.61594832 4.04072937 3.2856382 6 5 C6 5.66 6 6.32 6 7 C3.03 6.505 3.03 6.505 0 6 C0.33 5.34 0.66 4.68 1 4 C0.60061233 1.90178785 0.60061233 1.90178785 0 0 Z " fill="#53799E" transform="translate(158,29)"/>
<path xmlns="http://www.w3.org/2000/svg" d="M0 0 C3.65316671 1.24976756 4.78065836 1.67098753 7 5 C5.35 5.33 3.7 5.66 2 6 C1.34 4.02 0.68 2.04 0 0 Z " fill="#5E80A0" transform="translate(68,27)"/>
<path xmlns="http://www.w3.org/2000/svg" d="M0 0 C0.33 0.99 0.66 1.98 1 3 C-0.8125 6.1875 -0.8125 6.1875 -3 9 C-3.66 9 -4.32 9 -5 9 C-4.67 7.68 -4.34 6.36 -4 5 C-3.34 5 -2.68 5 -2 5 C-1.34 3.35 -0.68 1.7 0 0 Z " fill="#274780" transform="translate(87,155)"/>
<path xmlns="http://www.w3.org/2000/svg" d="M0 0 C0.33 0.66 0.66 1.32 1 2 C0.67 2.66 0.34 3.32 0 4 C-0.66 4 -1.32 4 -2 4 C-1.67 5.65 -1.34 7.3 -1 9 C-1.99 9 -2.98 9 -4 9 C-3.38461538 3.46153846 -3.38461538 3.46153846 -1.4375 1.125 C-0.963125 0.75375 -0.48875 0.3825 0 0 Z " fill="#CBB0A2" transform="translate(66,48)"/>
<path xmlns="http://www.w3.org/2000/svg" d="M0 0 C2.875 -0.125 2.875 -0.125 6 0 C6.66 0.66 7.32 1.32 8 2 C4.7 2.66 1.4 3.32 -2 4 C-1.34 3.67 -0.68 3.34 0 3 C0 2.01 0 1.02 0 0 Z " fill="#CED58E" transform="translate(155,45)"/>
<path xmlns="http://www.w3.org/2000/svg" d="M0 0 C0.66 0.33 1.32 0.66 2 1 C-0.35380297 4.92300495 -2.64464931 5.83857315 -7 7 C-4.78071806 4.09197539 -3.07030857 2.04687238 0 0 Z " fill="#81A6BE" transform="translate(132,27)"/>
<path xmlns="http://www.w3.org/2000/svg" d="M0 0 C0.99 0.33 1.98 0.66 3 1 C1.25 6.75 1.25 6.75 -1 9 C-0.67 6.03 -0.34 3.06 0 0 Z " fill="#6698C4" transform="translate(117,156)"/>
<path xmlns="http://www.w3.org/2000/svg" d="M0 0 C1.32 0.33 2.64 0.66 4 1 C4 1.99 4 2.98 4 4 C3.34 4 2.68 4 2 4 C2 4.66 2 5.32 2 6 C1.34 6 0.68 6 0 6 C0 4.02 0 2.04 0 0 Z " fill="#EDD550" transform="translate(162,140)"/>
<path xmlns="http://www.w3.org/2000/svg" d="M0 0 C2.12508244 3.18762365 2.5020163 5.26512223 3 9 C1.68 8.67 0.36 8.34 -1 8 C-0.67 5.36 -0.34 2.72 0 0 Z " fill="#E17826" transform="translate(86,69)"/>
<path xmlns="http://www.w3.org/2000/svg" d="M0 0 C1 2 1 2 0.25 5.5625 C-0.1625 6.696875 -0.575 7.83125 -1 9 C-1.99 9.33 -2.98 9.66 -4 10 C-3.52449439 8.51965236 -3.04448784 7.04074979 -2.5625 5.5625 C-2.29566406 4.73878906 -2.02882813 3.91507813 -1.75390625 3.06640625 C-1 1 -1 1 0 0 Z " fill="#99B9CC" transform="translate(117,44)"/>
<path xmlns="http://www.w3.org/2000/svg" d="M0 0 C0 0.99 0 1.98 0 3 C-0.99 3 -1.98 3 -3 3 C-3.33 4.32 -3.66 5.64 -4 7 C-4 6.01 -4 5.02 -4 4 C-4.66 3.67 -5.32 3.34 -6 3 C-3.375 0 -3.375 0 0 0 Z " fill="#B87247" transform="translate(79,49)"/>
<path xmlns="http://www.w3.org/2000/svg" d="M0 0 C0.99 0.33 1.98 0.66 3 1 C2.67 2.65 2.34 4.3 2 6 C-1 5 -1 5 -2 4 C-1.34 2.68 -0.68 1.36 0 0 Z " fill="#9C6A4E" transform="translate(71,45)"/>
<path xmlns="http://www.w3.org/2000/svg" d="M0 0 C0.33 0.66 0.66 1.32 1 2 C2.98 2 4.96 2 7 2 C7.33 2.99 7.66 3.98 8 5 C6.68 5 5.36 5 4 5 C4 4.34 4 3.68 4 3 C2.68 3.33 1.36 3.66 0 4 C-0.33 3.34 -0.66 2.68 -1 2 C-0.67 1.34 -0.34 0.68 0 0 Z " fill="#175B95" transform="translate(153,31)"/>

  </g>
</svg>
